<svg width="187" height="185" viewBox="0 0 187 185" fill="none" xmlns="http://www.w3.org/2000/svg">
<path d="M81.1371 107.959C81.0291 107.475 81.0321 106.973 81.1467 106.491C82.0394 102.53 81.9044 96.6855 82.796 91.9336C83.6879 87.1818 86.627 87.7163 89.8767 86.5779C91.9513 85.8479 93.8927 84.7265 96.1022 83.6974C97.4186 83.0672 98.781 82.5389 100.178 82.117C104.315 80.8955 114.701 85.2856 119.731 86.093C120.92 86.2824 122.091 86.5682 123.234 86.9475L123.257 86.8781C123.257 86.8781 146.197 71.1145 152.194 66.7975C158.192 62.4806 170.504 53.7153 170.504 53.7153L184.526 86.0919C184.526 86.0919 156.995 104.335 152.92 107.932C148.846 111.528 139.885 116.1 139.885 116.1L139.813 116.082C139.266 118.594 137.446 121.459 132.429 124.299L132.127 124.405C131.297 122.49 130.247 120.678 128.998 119.007C123.995 109.78 103.589 96.1071 101.825 96.4011C100.061 96.6951 95.1884 97.3383 95.1884 97.3383C94.8305 98.4174 93.3324 99.0213 93.3324 99.0213H93.2041C93.2285 102.285 92.1099 105.455 90.0435 107.978C86.7794 112.107 81.8086 110.935 81.1371 107.959Z" fill="#FFCEB6"/>
<path d="M137.895 26.7404C138.216 28.2125 138.34 29.7206 138.264 31.2253C138.248 31.4889 138.178 31.7458 138.056 31.9801C137.935 32.214 137.766 32.4201 137.56 32.5844C137.354 32.7486 137.116 32.8676 136.861 32.9336C136.606 32.9996 136.341 33.0111 136.081 32.9669L129.264 31.8389C128.846 31.7718 128.463 31.5642 128.179 31.2502C127.895 30.9358 127.726 30.5339 127.7 30.1106C127.673 28.9858 127.268 27.9033 126.551 27.0381C126.257 26.6966 125.929 26.3882 125.57 26.1172L123.608 38.0339L126.41 39.7333C130.264 42.0109 132.74 44.653 133.839 47.6603C134.938 50.6642 135.229 53.905 134.684 57.0576C134.338 59.2771 133.553 61.405 132.373 63.3149C131.248 65.134 129.797 66.7292 128.093 68.0197C126.369 69.3135 124.399 70.2399 122.304 70.7415C120.944 71.0759 119.546 71.2301 118.146 71.2004L117.207 76.9069C117.155 77.2227 117.042 77.5256 116.873 77.7977C116.704 78.0698 116.483 78.3056 116.223 78.4924C115.964 78.6789 115.67 78.8123 115.358 78.885C115.047 78.9577 114.725 78.968 114.41 78.9158C114.094 78.8635 113.792 78.7497 113.521 78.5803C113.249 78.4112 113.014 78.1899 112.828 77.9293C112.642 77.6691 112.509 77.3743 112.436 77.0622C112.363 76.75 112.353 76.4268 112.405 76.1109L113.333 70.4746C109.985 69.5826 107.024 67.6052 104.913 64.8512C103.885 63.5499 103.079 62.0871 102.53 60.5216C102.361 60.0559 102.21 59.5777 102.079 59.0813C101.735 57.7901 101.552 56.4611 101.532 55.1247C101.522 54.6906 101.608 54.2594 101.783 53.862C101.958 53.465 102.218 53.1113 102.545 52.8262C102.872 52.5411 103.257 52.3317 103.674 52.2127C104.09 52.0941 104.528 52.0685 104.956 52.1385L107.836 52.6186L109.88 52.9556C110.485 53.0579 111.043 53.3471 111.477 53.7823C111.911 54.2179 112.199 54.778 112.3 55.3849C112.443 56.2249 112.686 57.0446 113.024 57.8264C113.426 58.7499 114.157 59.4902 115.074 59.9025L117.287 46.4603L114.842 45.0679C111.809 43.4104 109.306 40.927 107.62 37.9041C106.035 34.8669 105.529 31.3784 106.188 28.0145C106.535 25.7902 107.339 23.6631 108.551 21.768C109.705 19.9629 111.21 18.4096 112.976 17.2004C114.662 15.9903 116.583 15.1485 118.614 14.7288C119.913 14.4571 121.239 14.341 122.565 14.3822L123.391 9.36342C123.496 8.72505 123.85 8.15452 124.375 7.7775C124.634 7.59103 124.928 7.45757 125.24 7.38454C125.551 7.31188 125.873 7.30113 126.189 7.3534C126.504 7.40567 126.806 7.51985 127.078 7.68889C127.349 7.85794 127.585 8.07926 127.771 8.33987C127.957 8.60012 128.09 8.89484 128.163 9.20698C128.236 9.51912 128.246 9.84239 128.194 10.1586L127.371 15.1648C128.689 15.5607 129.948 16.1286 131.117 16.8549C132.854 17.9236 134.345 19.3498 135.492 21.0391C136.65 22.7682 137.465 24.7033 137.895 26.7404ZM124.244 55.5528C124.511 54.1612 124.318 52.7198 123.694 51.4483C123.215 50.5756 122.556 49.8149 121.762 49.2169L119.926 60.3644C120.52 60.1964 121.091 59.9525 121.624 59.6381C122.345 59.2059 122.957 58.6124 123.412 57.9036C123.866 57.1947 124.151 56.3903 124.244 55.5528ZM119.125 35.2743L120.82 24.9813C120.018 25.1204 119.268 25.4751 118.651 26.0079C117.552 26.9261 116.826 28.2147 116.607 29.6316C116.441 30.6752 116.533 31.7436 116.873 32.7434C117.343 33.8011 118.13 34.686 119.125 35.2743Z" fill="#CCEFF6"/>
<path d="M81.1371 107.958C81.8076 110.935 86.7794 112.103 90.0388 107.979C92.1052 105.456 93.2234 102.286 93.1994 99.022H93.3277C93.3277 99.022 94.8253 98.4181 95.1837 97.339C95.1837 97.339 100.052 96.6958 101.82 96.4018C103.588 96.1082 123.99 109.781 128.994 119.008C130.242 120.679 131.292 122.491 132.122 124.406C132.665 125.812 132.872 127.152 132.218 127.928C129.962 130.616 127.204 129.825 125.268 127.591C125.172 127.482 125.077 127.366 124.981 127.248C123.035 124.756 118.04 118.674 118.04 118.674L113.873 116.081C114.845 116.993 115.758 117.966 116.606 118.995C117.722 120.52 122.11 125.011 124.081 128.091C124.588 128.757 124.921 129.539 125.05 130.367C125.008 130.973 124.823 131.559 124.511 132.079C124.198 132.599 123.766 133.036 123.252 133.355C122.736 133.674 122.153 133.866 121.55 133.914C120.947 133.962 120.341 133.865 119.782 133.632C119.712 133.603 119.646 133.568 119.584 133.526C117.915 132.49 109.702 125.105 108.428 123.901C108.173 123.426 107.822 123.01 107.398 122.679C107.141 122.472 106.868 122.287 106.581 122.125L106.568 122.115C104.409 120.884 102.045 121.347 100.004 122.946C97.7522 124.719 98.74 123.672 97.7659 124.689C97.6824 123.889 97.3414 123.139 96.7945 122.551C94.7765 120.28 92.0412 120.168 89.4667 121.557C87.4798 122.702 85.5628 123.965 83.726 125.339L76.2333 126.058L76.1682 126.046C76.3517 124.709 76.0625 123.35 75.3514 122.205C73.7232 119.743 71.28 119.997 69.9927 120.074C69.7816 120.088 69.5726 120.125 69.37 120.186L69.3537 120.074C68.3564 119.582 67.3897 119.028 66.4605 118.416C65.242 117.654 63.9196 116.776 62.862 116.064C61.6976 115.279 60.8615 114.698 60.8615 114.698C60.9398 105.176 61.6314 95.6696 62.9312 86.2375L64.6207 86.8944C67.3587 87.9602 72.5336 89.9669 73.1955 90.2012C73.512 90.3684 73.8648 90.4559 74.2228 90.4559C74.5807 90.4559 74.9331 90.3684 75.2497 90.2012C76.1875 89.8449 87.215 84.0236 89.4438 83.4927C91.6725 82.9615 96.0963 83.6932 96.0963 83.6932C93.8838 84.7264 91.9424 85.8479 89.8709 86.5737C86.6252 87.7126 83.6791 87.1739 82.7901 91.9295C81.9015 96.685 82.0335 102.526 81.1408 106.486C81.0277 106.97 81.0262 107.474 81.1371 107.958Z" fill="#FFCEB6"/>
<path d="M124.991 127.247C125.087 127.365 125.183 127.481 125.279 127.589C125.279 127.589 124.12 128.127 124.097 128.092C122.126 125.013 117.737 120.521 116.622 118.996C115.774 117.967 114.861 116.994 113.889 116.082L118.056 118.674C118.056 118.674 123.045 124.755 124.991 127.247Z" fill="#FFCEB6"/>
<path d="M119.595 133.526L119.368 133.859C119.283 134.307 119.095 134.729 118.818 135.092C118.542 135.454 118.185 135.746 117.775 135.946C117.194 136.312 116.544 136.553 115.865 136.654C115.186 136.755 114.493 136.713 113.831 136.532C113.238 136.244 112.665 135.915 112.117 135.546L111.241 135.45C111.683 135.04 112.075 134.578 112.406 134.074C113.651 131.969 113.608 130.665 112.235 129.569C111.719 129.08 111.084 128.735 110.393 128.569C109.702 128.403 108.98 128.421 108.298 128.623L108.153 128.533C108.227 128.41 108.291 128.282 108.345 128.149C108.672 127.493 108.851 126.772 108.867 126.038C108.884 125.304 108.738 124.576 108.44 123.906C109.714 125.104 117.923 132.49 119.595 133.526Z" fill="#FFCEB6"/>
<path d="M113.831 136.533C112.666 137.981 111.072 139.021 109.279 139.504C108.901 139.64 108.499 139.692 108.099 139.657C107.7 139.621 107.313 139.499 106.965 139.299L106.517 139.292C108.172 138.115 109.75 136.832 111.24 135.452L112.117 135.548C112.665 135.915 113.238 136.245 113.831 136.533Z" fill="#FFCEB6"/>
<path d="M112.235 129.561C113.608 130.657 113.647 131.962 112.406 134.066C112.075 134.57 111.683 135.033 111.241 135.443C109.75 136.823 108.172 138.106 106.517 139.283C105.967 139.683 105.616 139.926 105.616 139.926C100.196 143.118 97.7936 143.827 95.8551 142.912C95.2546 142.672 94.7158 142.298 94.2798 141.82C93.8439 141.341 93.5214 140.769 93.3372 140.147L93.2415 139.929C95.4166 138.974 97.5244 137.87 99.549 136.627C99.549 136.627 106.636 131.099 108.15 128.522L108.295 128.611C108.978 128.41 109.701 128.391 110.392 128.558C111.083 128.725 111.719 129.071 112.235 129.561Z" fill="#FFCEB6"/>
<path d="M108.441 123.897C108.739 124.567 108.885 125.296 108.868 126.029C108.852 126.763 108.673 127.484 108.345 128.141C108.292 128.274 108.228 128.402 108.154 128.525C106.639 131.102 99.5531 136.629 99.5531 136.629C97.5281 137.873 95.4203 138.977 93.2452 139.932C88.7437 141.81 87.6958 140.701 86.079 139.939C84.5388 139.123 83.3818 137.731 82.86 136.065V136.019C84.1986 135.919 85.5055 135.56 86.7084 134.963C86.7084 134.963 95.491 130.258 96.8108 128.089C97.4982 127.091 97.8391 125.894 97.7822 124.683C98.7562 123.666 97.7685 124.713 100.02 122.941C102.061 121.34 104.426 120.878 106.585 122.109L106.597 122.119C106.885 122.281 107.158 122.466 107.414 122.674C107.838 123.005 108.188 123.422 108.441 123.897Z" fill="#FFCEB6"/>
<path d="M83.7308 125.337C85.5702 123.963 87.489 122.7 89.4774 121.555C92.0519 120.165 94.7872 120.278 96.8052 122.549C97.3517 123.137 97.6927 123.887 97.7762 124.687C97.8336 125.898 97.4926 127.095 96.8052 128.092C95.4854 130.261 86.7028 134.966 86.7028 134.966C85.4999 135.563 84.1931 135.922 82.8544 136.022C80.3095 136.107 77.769 135.75 75.3458 134.966C72.7033 134.28 71.4419 129.324 71.4419 129.324C72.4536 129.158 73.4388 128.859 74.3718 128.432C74.8484 128.218 75.2637 127.887 75.5791 127.47C75.8942 127.052 76.0998 126.562 76.176 126.043L76.241 126.056L83.7308 125.337Z" fill="#FFCEB6"/>
<path d="M94.8807 4.87402L95.5024 7.89099L58.4603 15.5433L68.5031 64.4075L65.4912 65.0277L64.8696 62.0082L54.8293 13.1478L91.8688 5.49542L94.8807 4.87402Z" fill="#CCEFF6"/>
<path d="M91.8688 5.4949L54.8294 13.1476L64.8696 62.008L61.8577 62.632L51.1947 10.748L91.2502 2.47534L91.8688 5.4949Z" fill="#5B5B5B"/>
<path d="M69.3784 120.185C69.5811 120.124 69.79 120.086 70.0012 120.072C71.2884 119.999 73.7268 119.742 75.3598 122.204C76.0709 123.349 76.3601 124.708 76.1767 126.045C76.1005 126.562 75.8949 127.053 75.5799 127.471C75.2644 127.888 74.8491 128.219 74.3725 128.433C73.4395 128.859 72.4544 129.159 71.4426 129.324C69.1947 129.703 66.8568 129.499 65.8299 128.486C64.106 126.78 62.2518 122.86 66.2781 118.718L66.4697 118.414C67.3993 119.026 68.3656 119.579 69.3633 120.071L69.3784 120.185Z" fill="#FFCEB6"/>
<path d="M64.0527 84.5804L64.0161 84.6104C63.9806 84.5626 63.9351 84.5233 63.8826 84.4952C63.8301 84.4673 63.772 84.4514 63.7125 84.4484C63.653 84.4455 63.5938 84.4559 63.5387 84.4788C63.484 84.5018 63.4348 84.5363 63.3949 84.5804C63.1419 85.0994 62.9874 85.6611 62.9396 86.2368C61.6402 95.6689 60.9487 105.175 60.8699 114.697C60.9121 116.891 61.0866 118.337 61.439 118.532C61.6587 118.684 61.9298 118.743 62.1927 118.696L62.206 118.739C61.2253 119.393 58.6079 119.722 57.8961 117.647C57.7204 115.965 57.7075 114.269 57.8569 112.584C58.196 104.423 59.5224 89.0605 60.2513 84.8514C60.2905 84.4851 60.3811 84.1259 60.5216 83.7856C61.3078 82.7524 63.9606 83.3467 64.0527 84.5804Z" fill="#CCEFF6"/>
<path d="M60.0741 84.8183L60.2553 84.852C59.5246 89.0663 58.1978 104.428 57.8609 112.585H57.7652C57.7652 112.585 52.0903 110.031 49.2067 109.687C45.0258 109.193 2.55194 89.4185 2.55194 89.4185L18.8035 57.6855L57.4327 83.5011L60.0741 84.8183Z" fill="#FFCEB6"/>
<path d="M170.5 53.7153L184.523 86.0919" stroke="#FFCEB6" stroke-width="3.39567" stroke-linecap="round" stroke-linejoin="round"/>
<path d="M2.54828 89.4148L18.8032 57.6855" stroke="#FFCEB6" stroke-width="3.39567" stroke-linecap="round" stroke-linejoin="round"/>
<path d="M137.012 157.832C126.856 164.556 115.119 168.493 102.971 169.252C90.8239 170.012 78.6899 167.565 67.7796 162.157C56.8692 156.749 47.5634 148.569 40.7899 138.431C34.0165 128.294 30.012 116.553 29.1759 104.381" stroke="#5B5B5B" stroke-width="3.39567" stroke-linecap="round" stroke-linejoin="round"/>
<path d="M168.205 101.701C167.917 111.661 165.5 121.442 161.118 130.386C156.736 139.329 150.49 147.225 142.802 153.542" stroke="#5B5B5B" stroke-width="3.39567" stroke-linecap="round" stroke-linejoin="round"/>
<path d="M129.244 146.714C121.663 151.733 112.969 154.812 103.925 155.678C94.8811 156.544 85.7632 155.173 77.3711 151.683C68.9795 148.194 61.5699 142.693 55.7927 135.664C50.0154 128.635 46.0468 120.292 44.2356 111.367" stroke="#5B5B5B" stroke-width="3.39567" stroke-linecap="round" stroke-linejoin="round"/>
<path d="M153.182 110.646C150.76 123.463 143.921 135.018 133.862 143.292" stroke="#5B5B5B" stroke-width="3.39567" stroke-linecap="round" stroke-linejoin="round"/>
<path d="M135.955 59.3049C139.241 62.2777 142.162 65.6319 144.656 69.2976" stroke="#5B5B5B" stroke-width="3.39567" stroke-linecap="round" stroke-linejoin="round"/>
<path d="M49.0521 75.5483C51.6129 70.3916 54.9544 65.6631 58.9574 61.53" stroke="#5B5B5B" stroke-width="3.39567" stroke-linecap="round" stroke-linejoin="round"/>
<path d="M132.677 38.7231C141.438 43.6644 149.035 50.4389 154.95 58.5861" stroke="#5B5B5B" stroke-width="3.39567" stroke-linecap="round" stroke-linejoin="round"/>
<path d="M37.1034 66.929C41.5561 58.5297 47.668 51.1265 55.066 45.1709" stroke="#5B5B5B" stroke-width="3.39567" stroke-linecap="round" stroke-linejoin="round"/>
<path d="M123.26 86.8774C123.26 86.8774 146.2 71.1134 152.197 66.7964C158.195 62.4798 170.504 53.7153 170.504 53.7153" stroke="#5B5B5B" stroke-width="3.39567" stroke-linecap="round" stroke-linejoin="round"/>
<path d="M139.884 116.099C139.884 116.099 148.843 111.525 152.919 107.931C156.994 104.338 184.525 86.0918 184.525 86.0918" stroke="#5B5B5B" stroke-width="3.39567" stroke-linecap="round" stroke-linejoin="round"/>
<path d="M2.54828 89.4146C2.54828 89.4146 45.0229 109.194 49.2034 109.683C52.0874 110.027 57.7622 112.581 57.7622 112.581" stroke="#5B5B5B" stroke-width="3.39567" stroke-linecap="round" stroke-linejoin="round"/>
<path d="M60.0761 84.8175L57.4328 83.5011L18.8032 57.6855" stroke="#5B5B5B" stroke-width="3.39567" stroke-linecap="round" stroke-linejoin="round"/>
<path d="M64.6618 86.8079C64.6053 86.0375 64.3852 85.2883 64.0162 84.6102C63.9807 84.5624 63.9348 84.5231 63.8823 84.495C63.8298 84.4672 63.7718 84.4512 63.7126 84.4482C63.6531 84.4453 63.5939 84.4557 63.5388 84.4786C63.4837 84.5013 63.4345 84.5361 63.3946 84.5802C63.1416 85.0992 62.9874 85.6609 62.9397 86.2366C61.6399 95.6687 60.9488 105.175 60.87 114.696C60.9122 116.89 61.0863 118.337 61.4387 118.532C61.6588 118.684 61.9295 118.742 62.1927 118.696C63.0547 118.472 62.7759 116.343 62.7759 116.343" stroke="#5B5B5B" stroke-width="3.39567" stroke-linecap="round" stroke-linejoin="round"/>
<path d="M64.0527 84.5803C63.9569 83.3466 61.3077 82.756 60.5271 83.7852C60.387 84.1258 60.296 84.4847 60.2572 84.851C59.5261 89.0653 58.1996 104.427 57.8628 112.584C57.713 114.269 57.7263 115.964 57.9019 117.647C58.6097 119.722 61.2271 119.392 62.2119 118.739" stroke="#5B5B5B" stroke-width="3.39567" stroke-linecap="round" stroke-linejoin="round"/>
<path d="M62.9397 86.2367L64.6293 86.8932C67.3676 87.9591 72.5424 89.9657 73.204 90.2C73.5209 90.3676 73.8733 90.4547 74.2313 90.4547C74.5892 90.4547 74.942 90.3676 75.2586 90.2C76.196 89.8438 87.2239 84.0224 89.4526 83.4916C91.6814 82.9607 96.1052 83.6921 96.1052 83.6921" stroke="#5B5B5B" stroke-width="3.39567" stroke-linecap="round" stroke-linejoin="round"/>
<path d="M60.87 114.697C60.87 114.697 61.7061 115.277 62.8706 116.063C63.9241 116.775 65.2509 117.653 66.469 118.415C67.3987 119.027 68.3649 119.58 69.3623 120.072" stroke="#5B5B5B" stroke-width="3.39567" stroke-linecap="round" stroke-linejoin="round"/>
<path d="M139.554 109.805C139.554 111.199 140.386 113.443 139.811 116.082C139.264 118.594 137.444 121.459 132.427 124.3" stroke="#5B5B5B" stroke-width="3.39567" stroke-linecap="round" stroke-linejoin="round"/>
<path d="M127.766 89.1112C126.367 88.1758 124.842 87.4467 123.236 86.9462C122.094 86.5669 120.923 86.2811 119.734 86.0917C114.704 85.2861 104.314 80.8942 100.18 82.1154C98.7839 82.5373 97.4212 83.0659 96.1051 83.6957C93.8927 84.7289 91.9513 85.8503 89.8797 86.5762C86.6337 87.715 83.6879 87.1764 82.7989 91.9323C81.9103 96.6879 82.0423 102.529 81.1497 106.489C81.035 106.971 81.0317 107.473 81.14 107.957C81.8105 110.934 86.7823 112.102 90.0417 107.977C92.1081 105.455 93.2263 102.285 93.2023 99.0208C93.1956 98.1003 93.0917 97.1832 92.8928 96.2845" stroke="#5B5B5B" stroke-width="3.39567" stroke-linecap="round" stroke-linejoin="round"/>
<path d="M93.3303 99.0211C93.3303 99.0211 94.8284 98.4172 95.1863 97.3377C95.1863 97.3377 100.055 96.6945 101.823 96.4009C103.591 96.1069 123.993 109.78 128.996 119.006" stroke="#5B5B5B" stroke-width="3.39567" stroke-linecap="round" stroke-linejoin="round"/>
<path d="M128.997 119.007C130.245 120.678 131.295 122.49 132.125 124.405C132.668 125.811 132.875 127.151 132.22 127.927C129.965 130.615 127.206 129.824 125.271 127.59C125.175 127.481 125.079 127.365 124.984 127.247C123.037 124.755 118.044 118.673 118.044 118.673L113.877 116.08" stroke="#5B5B5B" stroke-width="3.39567" stroke-linecap="round" stroke-linejoin="round"/>
<path d="M106.593 107.226C106.678 108.115 106.9 108.985 107.251 109.805C107.524 110.122 111.165 113.413 113.884 116.082C114.856 116.994 115.769 117.967 116.616 118.996C117.732 120.521 122.121 125.013 124.092 128.092C124.598 128.758 124.931 129.54 125.06 130.368C125.018 130.974 124.834 131.56 124.521 132.08C124.208 132.599 123.777 133.037 123.262 133.356C122.747 133.675 122.164 133.866 121.561 133.915C120.957 133.963 120.351 133.866 119.792 133.633C119.723 133.604 119.657 133.569 119.594 133.527C117.926 132.491 109.713 125.106 108.438 123.902L108.432 123.895" stroke="#5B5B5B" stroke-width="3.39567" stroke-linecap="round" stroke-linejoin="round"/>
<path d="M119.368 133.859C119.283 134.308 119.095 134.729 118.818 135.092C118.542 135.454 118.184 135.746 117.775 135.946C117.194 136.312 116.544 136.553 115.865 136.654C115.186 136.755 114.493 136.714 113.831 136.532C113.238 136.244 112.665 135.915 112.117 135.546" stroke="#5B5B5B" stroke-width="3.39567" stroke-linecap="round" stroke-linejoin="round"/>
<path d="M113.831 136.532C112.666 137.98 111.072 139.02 109.279 139.503C108.902 139.639 108.499 139.691 108.1 139.656C107.7 139.621 107.313 139.499 106.965 139.299" stroke="#5B5B5B" stroke-width="3.39567" stroke-linecap="round" stroke-linejoin="round"/>
<path d="M101.823 96.401C101.823 96.401 103.311 94.9222 103.311 94.0811" stroke="#5B5B5B" stroke-width="3.39567" stroke-linecap="round" stroke-linejoin="round"/>
<path d="M95.1866 97.3378C95.3187 96.6445 95.3187 95.9324 95.1866 95.2388" stroke="#5B5B5B" stroke-width="3.39567" stroke-linecap="round" stroke-linejoin="round"/>
<path d="M81.0617 107.651C81.0609 107.759 81.0872 107.865 81.1371 107.961C81.7328 109.169 85.9107 108.779 87.2505 106.767C88.6949 104.592 86.9306 101.701 86.9306 101.701" stroke="#5B5B5B" stroke-width="3.39567" stroke-linecap="round" stroke-linejoin="round"/>
<path d="M81.9503 100.915C81.9503 100.915 83.0227 100.833 84.4405 100.667" stroke="#5B5B5B" stroke-width="3.39567" stroke-linecap="round" stroke-linejoin="round"/>
<path d="M128.52 128.092C129.5 127.801 130.4 127.289 131.15 126.593" stroke="#5B5B5B" stroke-width="3.39567" stroke-linecap="round" stroke-linejoin="round"/>
<path d="M125.274 127.59C125.274 127.59 124.115 128.127 124.092 128.092" stroke="#5B5B5B" stroke-width="3.39567" stroke-linecap="round" stroke-linejoin="round"/>
<path d="M67.0942 121.4C67.7857 120.876 68.5571 120.467 69.3784 120.19C69.5811 120.129 69.79 120.091 70.0012 120.077C71.2884 120.004 73.7268 119.747 75.3598 122.209C76.0709 123.354 76.3601 124.713 76.1767 126.049C76.1005 126.567 75.8949 127.058 75.5799 127.476C75.2644 127.893 74.8491 128.224 74.3725 128.438C73.4395 128.864 72.4544 129.164 71.4426 129.329C69.1947 129.708 66.8568 129.504 65.8299 128.491C64.106 126.785 62.2518 122.865 66.2781 118.723" stroke="#5B5B5B" stroke-width="3.39567" stroke-linecap="round" stroke-linejoin="round"/>
<path d="M83.7308 125.337C82.9705 125.892 82.3381 126.364 81.9465 126.655" stroke="#5B5B5B" stroke-width="3.39567" stroke-linecap="round" stroke-linejoin="round"/>
<path d="M71.443 129.326C71.443 129.326 72.7044 134.282 75.3465 134.968C77.7701 135.752 80.3106 136.109 82.8555 136.024C84.1941 135.924 85.501 135.565 86.7039 134.968C86.7039 134.968 95.4865 130.263 96.8063 128.095C97.4933 127.097 97.8347 125.9 97.7773 124.689C97.6938 123.889 97.3528 123.139 96.8063 122.551C94.7883 120.28 92.053 120.167 89.4785 121.557C87.4916 122.702 85.5746 123.965 83.7375 125.339" stroke="#5B5B5B" stroke-width="3.39567" stroke-linecap="round" stroke-linejoin="round"/>
<path d="M83.7379 125.339H83.7349L76.2422 126.058" stroke="#5B5B5B" stroke-width="3.39567" stroke-linecap="round" stroke-linejoin="round"/>
<path d="M89.6563 124.944C89.0325 125.683 88.693 126.621 88.6986 127.59C88.7451 127.997 88.8908 128.387 89.1227 128.725C89.3546 129.063 89.6659 129.338 90.0291 129.528C90.3922 129.717 90.796 129.813 91.2054 129.809C91.6144 129.805 92.0163 129.7 92.3754 129.504C94.0776 128.56 96.8033 126.65 96.0533 124.944" stroke="#5B5B5B" stroke-width="3.39567" stroke-linecap="round" stroke-linejoin="round"/>
<path d="M90.825 123.897C91.4199 123.368 92.1451 123.009 92.9254 122.857C93.4741 122.833 94.0115 123.018 94.4301 123.375" stroke="#5B5B5B" stroke-width="3.39567" stroke-linecap="round" stroke-linejoin="round"/>
<path d="M106.58 122.115C104.42 120.884 102.057 121.346 100.016 122.946C97.764 124.719 98.7514 123.672 97.7773 124.689C97.7574 124.709 97.7381 124.732 97.7152 124.755" stroke="#5B5B5B" stroke-width="3.39567" stroke-linecap="round" stroke-linejoin="round"/>
<path d="M82.8596 136.071C83.381 137.737 84.5381 139.129 86.0787 139.945C87.695 140.707 88.7478 141.816 93.2445 139.938C95.42 138.983 97.5274 137.879 99.5524 136.635C99.5524 136.635 106.64 131.107 108.153 128.531C108.227 128.408 108.291 128.279 108.345 128.147C108.673 127.49 108.851 126.769 108.868 126.035C108.884 125.301 108.738 124.573 108.44 123.903C108.186 123.428 107.835 123.012 107.411 122.681C107.154 122.474 106.881 122.289 106.594 122.127" stroke="#5B5B5B" stroke-width="3.39567" stroke-linecap="round" stroke-linejoin="round"/>
<path d="M100.763 126.253C100.276 127.089 100.102 128.072 100.272 129.025C100.387 129.418 100.597 129.778 100.883 130.071C101.169 130.364 101.522 130.582 101.912 130.707C102.301 130.831 102.716 130.858 103.118 130.784C103.52 130.711 103.899 130.54 104.219 130.286C105.74 129.065 108.1 126.718 107.074 125.164" stroke="#5B5B5B" stroke-width="3.39567" stroke-linecap="round" stroke-linejoin="round"/>
<path d="M101.737 125.019C102.233 124.398 102.886 123.922 103.629 123.639C104.167 123.522 104.729 123.613 105.203 123.894" stroke="#5B5B5B" stroke-width="3.39567" stroke-linecap="round" stroke-linejoin="round"/>
<path d="M93.3369 140.156C93.5214 140.778 93.8435 141.349 94.2795 141.828C94.7159 142.307 95.2543 142.681 95.8548 142.921C97.7937 143.835 100.197 143.126 105.615 139.935C105.615 139.935 105.967 139.691 106.517 139.292C108.172 138.115 109.75 136.832 111.24 135.451C111.683 135.041 112.074 134.579 112.406 134.074C113.651 131.97 113.608 130.666 112.235 129.57C111.719 129.081 111.083 128.736 110.392 128.569C109.702 128.403 108.979 128.422 108.298 128.624" stroke="#5B5B5B" stroke-width="3.39567" stroke-linecap="round" stroke-linejoin="round"/>
<path d="M106.823 131.827C106.447 132.473 106.313 133.233 106.445 133.969C106.534 134.274 106.696 134.552 106.917 134.78C107.138 135.007 107.411 135.176 107.713 135.273C108.015 135.369 108.335 135.389 108.647 135.333C108.958 135.276 109.251 135.142 109.499 134.945C110.675 134.001 112.502 132.187 111.702 130.982" stroke="#5B5B5B" stroke-width="3.39567" stroke-linecap="round" stroke-linejoin="round"/>
<path d="M107.579 130.87C107.964 130.389 108.471 130.021 109.048 129.804C109.463 129.712 109.897 129.784 110.262 130.002" stroke="#5B5B5B" stroke-width="3.39567" stroke-linecap="round" stroke-linejoin="round"/>
<path d="M103.311 117.934L104.414 120.043L106.58 122.115L106.592 122.125" stroke="#5B5B5B" stroke-width="3.39567" stroke-linecap="round" stroke-linejoin="round"/>
<path d="M74.3725 128.435C73.4162 127.995 72.5439 127.391 71.7954 126.65C71.2866 125.986 70.9342 125.215 70.7648 124.395C70.729 124.21 70.6454 124.037 70.5226 123.894C70.3999 123.751 70.2423 123.642 70.0648 123.579C69.8877 123.515 69.6969 123.499 69.5116 123.532C69.326 123.565 69.1522 123.645 69.0072 123.765C68.5465 124.107 68.2236 124.604 68.0983 125.164C67.9533 125.808 68.028 126.482 68.3113 127.078C68.5942 127.674 69.0686 128.158 69.6584 128.451" stroke="#5B5B5B" stroke-width="3.39567" stroke-linecap="round" stroke-linejoin="round"/>
<path d="M102.505 60.5292L69.1223 67.4231L68.5033 64.4073L58.4604 15.5432L95.5025 7.89047L98.5119 7.27026L107.834 52.6126" stroke="#5B5B5B" stroke-width="3.39567" stroke-linecap="round" stroke-linejoin="round"/>
<path d="M68.5031 64.4075L65.4912 65.0277L64.8696 62.0082L54.8293 13.1478L91.8688 5.49542L94.8807 4.87402L95.5024 7.89099V7.89358" stroke="#5B5B5B" stroke-width="3.39567" stroke-linecap="round" stroke-linejoin="round"/>
<path d="M64.8696 62.008L61.8577 62.632L51.1947 10.748L91.2502 2.47534L91.8688 5.4949" stroke="#5B5B5B" stroke-width="3.39567" stroke-linecap="round" stroke-linejoin="round"/>
<path d="M66.2515 21.1303L93.5602 15.4902" stroke="#5B5B5B" stroke-width="3.39567" stroke-linecap="round" stroke-linejoin="round"/>
<path d="M68.9968 26.8594L96.3063 21.2156" stroke="#5B5B5B" stroke-width="3.39567" stroke-linecap="round" stroke-linejoin="round"/>
<path d="M66.6073 30.4993L96.928 24.2354" stroke="#5B5B5B" stroke-width="3.39567" stroke-linecap="round" stroke-linejoin="round"/>
<path d="M67.226 33.5183L97.5466 27.2554" stroke="#5B5B5B" stroke-width="3.39567" stroke-linecap="round" stroke-linejoin="round"/>
<path d="M67.8483 36.538L89.1335 32.1394" stroke="#5B5B5B" stroke-width="3.39567" stroke-linecap="round" stroke-linejoin="round"/>
<path d="M71.4792 38.9348L98.788 33.2947" stroke="#5B5B5B" stroke-width="3.39567" stroke-linecap="round" stroke-linejoin="round"/>
<path d="M69.0897 42.5744L99.4104 36.3145" stroke="#5B5B5B" stroke-width="3.39567" stroke-linecap="round" stroke-linejoin="round"/>
<path d="M69.7084 45.5932L100.029 39.3303" stroke="#5B5B5B" stroke-width="3.39567" stroke-linecap="round" stroke-linejoin="round"/>
<path d="M73.3394 47.9925L100.652 42.3499" stroke="#5B5B5B" stroke-width="3.39567" stroke-linecap="round" stroke-linejoin="round"/>
<path d="M70.9493 51.6325L101.27 45.3696" stroke="#5B5B5B" stroke-width="3.39567" stroke-linecap="round" stroke-linejoin="round"/>
<path d="M71.571 54.6524L101.892 48.3892" stroke="#5B5B5B" stroke-width="3.39567" stroke-linecap="round" stroke-linejoin="round"/>
<path d="M81.2522 60.5198L84.344 59.8832L88.0168 59.1236L95.6475 57.5462L97.0967 57.2456L99.5291 56.7444" stroke="#5B5B5B" stroke-width="3.39567" stroke-linecap="round" stroke-linejoin="round"/>
<path d="M90.2436 55.863C90.1478 56.2134 89.555 58.418 90.3723 58.441C91.2542 58.467 93.2655 53.3818 93.2655 53.3818C93.2655 53.3818 92.2807 57.5105 93.4722 57.5961C94.6637 57.6814 94.4906 54.659 95.5238 54.3787C96.2508 54.18 95.6484 56.3383 95.6484 57.5472C95.6484 58.0655 95.7605 58.4113 96.1329 58.3153C96.5966 58.2 96.8762 57.7611 97.0977 57.2458C97.4597 56.3817 97.6664 55.3051 98.3121 55.1439" stroke="#5B5B5B" stroke-width="3.39567" stroke-linecap="round" stroke-linejoin="round"/>
<path d="M86.4126 57.3482C86.8342 58.3747 87.4661 59.1724 87.9986 59.0479C89.2101 58.7539 90.1124 56.2364 90.2407 55.8631C90.2433 55.8519 90.2462 55.8408 90.2503 55.8304V55.8208" stroke="#5B5B5B" stroke-width="3.39567" stroke-linecap="round" stroke-linejoin="round"/>
<path d="M86.4125 57.3483C87.3895 55.4999 87.9298 53.332 86.7612 53.6326C85.6271 53.9262 85.8083 55.8695 86.4125 57.3483Z" stroke="#5B5B5B" stroke-width="3.39567" stroke-linecap="round" stroke-linejoin="round"/>
<path d="M84.321 59.7739C84.9759 59.5963 85.7854 58.5401 86.4144 57.3486" stroke="#5B5B5B" stroke-width="3.39567" stroke-linecap="round" stroke-linejoin="round"/>
<path d="M79.3636 56.926L77.8493 59.2323L76.335 61.5355" stroke="#5B5B5B" stroke-width="3.39567" stroke-linecap="round" stroke-linejoin="round"/>
<path d="M75.5477 57.7141L77.8489 59.2322L80.1468 60.7473" stroke="#5B5B5B" stroke-width="3.39567" stroke-linecap="round" stroke-linejoin="round"/>
<path d="M102.528 60.52C103.078 62.0852 103.883 63.5484 104.911 64.8492C107.022 67.6029 109.983 69.58 113.332 70.473L112.403 76.109C112.351 76.4252 112.362 76.7485 112.434 77.0606C112.507 77.3724 112.64 77.6671 112.826 77.9278C113.012 78.188 113.248 78.4093 113.519 78.5787C113.79 78.7478 114.092 78.862 114.408 78.9142C114.723 78.9665 115.045 78.9558 115.356 78.8831C115.668 78.8104 115.962 78.677 116.221 78.4905C116.481 78.304 116.702 78.0679 116.871 77.7958C117.04 77.5237 117.153 77.2212 117.205 76.9049L118.144 71.1989C119.544 71.2285 120.942 71.0743 122.302 70.7399C124.397 70.2376 126.367 69.3104 128.091 68.0159C129.795 66.7254 131.246 65.1306 132.371 63.3111C133.551 61.4023 134.337 59.2763 134.684 57.0575C135.229 53.9049 134.937 50.6638 133.838 47.6595C132.739 44.6511 130.262 42.0087 126.409 39.7325L123.607 38.0331L125.569 26.1168C125.928 26.3874 126.256 26.6962 126.549 27.0373C127.267 27.9025 127.672 28.985 127.699 30.1098C127.725 30.5331 127.894 30.935 128.178 31.2493C128.462 31.5633 128.845 31.7709 129.263 31.838L136.08 32.9665C136.34 33.0103 136.605 32.9988 136.86 32.9328C137.115 32.8668 137.353 32.7478 137.559 32.5836C137.765 32.4193 137.934 32.2136 138.055 31.9793C138.177 31.745 138.247 31.4881 138.263 31.2245C138.339 29.7198 138.215 28.2117 137.894 26.7396C137.463 24.7047 136.648 22.7714 135.491 21.0443C134.344 19.3549 132.853 17.9288 131.116 16.8596C129.947 16.1338 128.687 15.5654 127.37 15.1699L128.193 10.1637C128.245 9.84751 128.234 9.52425 128.162 9.21211C128.089 8.89996 127.956 8.60524 127.77 8.34463C127.584 8.08439 127.348 7.86307 127.077 7.69402C126.805 7.5246 126.503 7.41079 126.188 7.35852C125.873 7.30625 125.55 7.317 125.239 7.38966C124.927 7.46232 124.633 7.59578 124.373 7.78262C123.849 8.15964 123.495 8.73018 123.39 9.36855L122.564 14.3873C121.238 14.3458 119.912 14.4622 118.614 14.7339C116.582 15.1536 114.662 15.9955 112.975 17.2055C111.209 18.4148 109.705 19.9681 108.55 21.7727C107.338 23.6678 106.534 25.7954 106.187 28.0197C105.529 31.3835 106.034 34.872 107.619 37.9093C109.304 40.9321 111.808 43.4155 114.841 45.073L117.284 46.4624L115.072 59.9046C114.154 59.4924 113.423 58.7521 113.021 57.8286C112.683 57.0464 112.44 56.2264 112.297 55.386C112.195 54.7791 111.908 54.2193 111.474 53.7841C111.04 53.3489 110.482 53.0601 109.877 52.9578L107.833 52.6208L104.953 52.1407C104.525 52.0706 104.088 52.0962 103.671 52.2149C103.254 52.3339 102.869 52.5433 102.542 52.828C102.215 53.1131 101.955 53.4671 101.78 53.8642C101.605 54.2616 101.519 54.6927 101.529 55.1268C101.548 56.4633 101.732 57.7919 102.076 59.0835C102.208 59.5762 102.359 60.0544 102.528 60.52Z" stroke="#5B5B5B" stroke-width="3.39567" stroke-linecap="round" stroke-linejoin="round"/>
<path d="M116.869 32.7463C116.528 31.7465 116.437 30.6781 116.603 29.6345C116.822 28.2176 117.548 26.9294 118.647 26.0108C119.264 25.478 120.014 25.1233 120.816 24.9846L119.121 35.2772C118.126 34.6889 117.339 33.8043 116.869 32.7463Z" stroke="#5B5B5B" stroke-width="3.39567" stroke-linecap="round" stroke-linejoin="round"/>
<path d="M121.627 59.6381C121.094 59.9525 120.523 60.1964 119.929 60.364L121.765 49.2166C122.559 49.8149 123.218 50.5752 123.697 51.4479C124.321 52.7198 124.514 54.1612 124.247 55.5528C124.154 56.3903 123.869 57.1947 123.415 57.9036C122.96 58.612 122.348 59.2059 121.627 59.6381Z" stroke="#5B5B5B" stroke-width="3.39567" stroke-linecap="round" stroke-linejoin="round"/>
</svg>
