<svg width="187" height="185" viewBox="0 0 187 185" fill="none" xmlns="http://www.w3.org/2000/svg">
<path d="M168.707 85.4268H165.965V117.32H168.707V85.4268Z" fill="#FFCEB6"/>
<path d="M92.0323 120.531L91.1574 119.636C86.7813 119.292 80.1313 117.531 75.9194 112.318C75.6731 112.014 75.4475 111.694 75.2438 111.36C74.8662 110.751 74.6007 110.079 74.4598 109.376C73.7439 105.614 77.623 102.877 79.4498 102.429C81.7484 101.872 85.7033 102.596 87.2971 102.935C87.7339 103.029 87.9949 103.091 87.9949 103.091C88.28 103.113 88.5663 103.113 88.851 103.091C89.047 103.08 89.2574 103.065 89.483 103.047C89.5554 103.047 89.6283 103.04 89.7045 103.033C89.7481 103.033 89.7903 103.033 89.8354 103.026C90.7029 102.965 91.5734 102.976 92.4387 103.059C92.6861 103.084 92.9438 103.121 93.2094 103.164C93.3539 103.19 93.4996 103.219 93.6483 103.25C93.7685 103.276 93.8883 103.305 94.0114 103.336C94.102 103.358 94.193 103.383 94.2836 103.409C94.4696 103.459 94.6545 103.514 94.8394 103.576C94.8475 103.58 94.856 103.582 94.8649 103.584C94.9507 103.612 95.0361 103.641 95.1219 103.675V103.671C96.4535 104.165 97.6879 104.891 98.7677 105.816C99.7735 106.668 100.881 107.557 102.033 108.441C103.574 109.621 105.192 110.797 106.776 111.867C106.776 111.867 107.35 111.977 108.207 112.086L108.218 111.995V101.4H129.216C132.641 108.695 138.006 121.931 141.808 132.548C145.763 143.586 158.474 162.868 161.053 169.312C164.122 176.973 164.122 181.241 164.122 181.241H118.958C118.978 179.557 118.8 177.877 118.428 176.235L120.074 168.854C118.796 168.887 116.783 168.854 116.783 168.854V168.861C116.551 168.81 115.399 168.523 110.705 167.296C103.543 165.424 88.013 145.942 88.013 145.942C86.4448 145.206 83.695 141.77 82.0675 139.611C81.2562 138.534 80.7618 137.251 80.6405 135.907H80.615C80.615 135.907 72.4548 134.963 68.0709 133.563C68.0709 133.563 61.087 131.728 59.1405 130.887C59.1405 130.887 46.9381 126.347 43.8544 124.559C40.7711 122.771 42.228 115.279 48.401 117.07C52.0368 118.122 55.2403 119.188 55.3889 119.24C56.7797 120.242 58.4493 120.78 60.1618 120.776H69.1925C69.1925 120.776 79.7168 123.074 81.6959 123.514L81.9529 123.528C82.1615 122.571 82.4972 121.645 82.951 120.776H91.8489L92.0323 120.531Z" fill="#FFCEB6"/>
<path d="M161.621 95.6248C161.647 95.5888 161.671 95.5529 161.697 95.5195C161.605 96.4315 161.262 97.3001 160.706 98.0278C160.331 98.5672 159.79 98.9694 159.167 99.174C158.544 99.3783 157.871 99.3742 157.25 99.1614L155.11 101.885L152.713 98.8337L154.853 96.1108C154.674 95.3571 154.66 94.5738 154.814 93.815C154.968 93.0557 155.284 92.3395 155.743 91.7156C156.224 91.0665 156.927 90.619 157.718 90.4592C157.687 90.4881 157.658 90.52 157.633 90.5545C157.096 91.2908 156.807 92.1786 156.807 93.0902C156.807 94.0018 157.096 94.8897 157.633 95.6259C157.856 95.9484 158.154 96.2124 158.502 96.3944C158.849 96.5768 159.235 96.6717 159.627 96.6717C160.019 96.6717 160.405 96.5764 160.753 96.394C161.1 96.2116 161.398 95.9477 161.621 95.6248Z" fill="#CCEFF6"/>
<path d="M159.703 106.642C160.142 107.243 160.379 107.968 160.379 108.712C160.379 109.457 160.142 110.181 159.703 110.782C159.521 111.045 159.277 111.261 158.994 111.41C158.71 111.559 158.395 111.636 158.075 111.636C157.754 111.636 157.439 111.559 157.155 111.41C156.871 111.261 156.628 111.045 156.445 110.782C156.009 110.198 155.773 109.488 155.774 108.758L155.745 108.797L152.705 104.936L150.308 101.885L148.168 99.1614C147.547 99.375 146.873 99.3798 146.249 99.1755C145.624 98.9712 145.083 98.5687 144.707 98.0289C144.153 97.3001 143.811 96.4318 143.719 95.5203C143.744 95.5536 143.766 95.5896 143.795 95.6259C144.018 95.9492 144.316 96.2135 144.663 96.3963C145.01 96.5787 145.397 96.6739 145.789 96.6739C146.181 96.6739 146.567 96.5787 146.915 96.3963C147.262 96.2135 147.56 95.9492 147.783 95.6259C148.32 94.89 148.61 94.0022 148.61 93.0902C148.61 92.1782 148.32 91.2904 147.783 90.5545C147.758 90.5215 147.731 90.4896 147.703 90.4592C148.492 90.6197 149.193 91.0672 149.672 91.7156C150.131 92.3391 150.449 93.0554 150.603 93.8142C150.757 94.5734 150.744 95.3571 150.566 96.1108L152.706 98.8337L155.103 101.885L158.14 105.746L158.11 105.787C158.423 105.8 158.729 105.884 159.005 106.032C159.28 106.18 159.519 106.389 159.703 106.642Z" fill="#CCEFF6"/>
<path d="M150.305 101.884L152.705 104.935L151.612 106.326L150.305 101.884Z" fill="#5B5B5B"/>
<path d="M150.305 101.884L151.612 106.326L149.665 108.797L149.633 108.758C149.634 109.488 149.398 110.199 148.961 110.783C148.778 111.046 148.535 111.262 148.251 111.41C147.967 111.559 147.652 111.637 147.332 111.637C147.011 111.637 146.696 111.559 146.412 111.41C146.129 111.262 145.885 111.046 145.703 110.783C145.266 110.181 145.031 109.456 145.031 108.713C145.031 107.968 145.266 107.244 145.703 106.642C145.887 106.389 146.127 106.18 146.403 106.031C146.679 105.883 146.984 105.798 147.297 105.784L147.265 105.744L150.305 101.884Z" fill="#CCEFF6"/>
<path d="M149.872 20.2561H147.257V50.683H149.872V20.2561Z" fill="#FFCEB6"/>
<path d="M137.687 34.9866C137.857 35.1778 137.965 35.4162 137.998 35.6702C138.03 35.9241 137.986 36.1821 137.869 36.4101L137.692 36.7382L136.065 39.7488C136.234 40.1232 136.333 40.5254 136.359 40.9354C136.454 42.3849 135.658 43.6157 134.586 43.6817C133.515 43.7481 132.568 42.6341 132.473 41.1846C132.378 39.7351 133.174 38.505 134.246 38.4383C134.444 38.4246 134.643 38.4516 134.831 38.518L136.286 35.8318L136.641 35.1727C136.681 35.074 136.745 34.9873 136.828 34.9202C136.91 34.8535 137.008 34.8086 137.113 34.7897C137.217 34.7712 137.325 34.7793 137.425 34.8138C137.526 34.8483 137.616 34.9076 137.687 34.9866Z" fill="#CCEFF6"/>
<path d="M129.218 101.4H108.22V62.5161C108.22 62.5161 111.31 63.4663 115.261 70.2596C119.213 77.0534 125.43 93.4776 128.819 100.555C128.949 100.825 129.085 101.105 129.218 101.4Z" fill="#FFCEB6"/>
<path d="M116.826 168.868L116.783 168.854C116.783 168.854 118.796 168.887 120.074 168.854L118.428 176.235C117.789 172.787 116.83 169.03 116.786 168.858C116.799 168.863 116.813 168.866 116.826 168.868Z" fill="#5B5B5B"/>
<path d="M108.22 101.4V111.987L108.208 112.079C107.352 111.97 106.777 111.859 106.777 111.859C105.194 110.789 103.575 109.614 102.034 108.434L102.085 108.368C102.34 107.767 102.471 107.121 102.47 106.467V101.404L108.22 101.4Z" fill="#CCEFF6"/>
<path d="M102.47 40.2334V34.9985C102.47 33.701 101.956 32.4569 101.041 31.5394C100.126 30.6222 98.8849 30.1066 97.5906 30.1066H68.647C67.3528 30.1066 66.1117 30.6222 65.1965 31.5394C64.2816 32.4569 63.7673 33.701 63.7673 34.9985V45.6652C63.7673 46.3076 63.8937 46.9438 64.1389 47.5373C64.3841 48.1308 64.7435 48.6698 65.1965 49.1243C65.6499 49.5785 66.1875 49.9388 66.7796 50.1846C67.3716 50.4304 68.0062 50.5568 68.647 50.5568H97.588C98.2289 50.5568 98.8635 50.4304 99.4555 50.1846C100.048 49.9388 100.586 49.5785 101.039 49.1243C101.492 48.6698 101.851 48.1308 102.096 47.5373C102.341 46.9438 102.468 46.3076 102.468 45.6652L102.47 40.2334ZM57.1757 71.5445V26.9699C57.1761 24.64 58.0991 22.4057 59.7424 20.7582C61.3858 19.1107 63.6145 18.1851 65.9383 18.1843H66.9881C66.9881 19.9397 67.6834 21.6231 68.9218 22.8646C70.1598 24.1058 71.8391 24.8031 73.59 24.8031H90.0136C91.7646 24.802 93.4438 24.1047 94.6822 22.8635C95.9206 21.6227 96.6173 19.9397 96.6192 18.1843H99.4525C100.604 18.184 101.744 18.4112 102.807 18.8524C103.871 19.2939 104.837 19.9408 105.651 20.7567C106.466 21.5727 107.111 22.541 107.552 23.6072C107.992 24.6733 108.22 25.8159 108.22 26.9699V101.4H102.47V95.8035C102.47 94.506 101.956 93.2618 101.041 92.3443C100.126 91.4272 98.8849 90.9115 97.5906 90.9115H68.647C67.3528 90.9115 66.1117 91.4272 65.1965 92.3443C64.2816 93.2618 63.7673 94.506 63.7673 95.8035V106.467C63.7673 107.765 64.2816 109.009 65.1965 109.927C66.1117 110.844 67.3528 111.359 68.647 111.359H75.2463C75.4501 111.693 75.6757 112.013 75.9219 112.317C80.1313 117.531 86.7812 119.289 91.1599 119.635L92.0349 120.53L91.8533 120.778H65.9383C63.6138 120.777 61.3847 119.85 59.7417 118.201C58.0983 116.553 57.1754 114.318 57.1757 111.987V71.5445ZM63.7743 71.5445V76.0665C63.7743 77.3637 64.2883 78.6082 65.2035 79.5253C66.1188 80.4428 67.3598 80.9581 68.6541 80.9581H97.5951C98.889 80.9581 100.13 80.4428 101.045 79.5253C101.96 78.6082 102.474 77.3637 102.474 76.0665V65.4021C102.474 64.105 101.96 62.8605 101.045 61.9433C100.13 61.0258 98.889 60.5105 97.5951 60.5105H68.647C67.3528 60.5105 66.1117 61.0258 65.1965 61.9433C64.2816 62.8605 63.7673 64.105 63.7673 65.4021L63.7743 71.5445Z" fill="#CCEFF6"/>
<path d="M102.47 101.4V106.463C102.471 107.116 102.34 107.763 102.085 108.364L102.034 108.429C100.883 107.544 99.7754 106.656 98.7695 105.804C97.6897 104.879 96.4554 104.153 95.1234 103.658C95.4547 103.082 95.6492 102.437 95.6921 101.774C95.735 101.11 95.6252 100.446 95.3711 99.8316C95.1171 99.2173 94.7251 98.6697 94.2263 98.2315C93.7274 97.7934 93.1346 97.476 92.4938 97.304C91.8533 97.132 91.1814 97.1101 90.5309 97.2402C89.8805 97.37 89.2685 97.648 88.7423 98.0529C88.2157 98.4577 87.7897 98.9785 87.4961 99.575C87.2028 100.171 87.0501 100.827 87.0497 101.492C87.0505 101.982 87.1348 102.469 87.2997 102.931C85.7059 102.592 81.751 101.868 79.4524 102.424C77.6256 102.872 73.7465 105.61 74.4624 109.372C74.6033 110.074 74.8688 110.747 75.2463 111.356H68.647C67.3528 111.356 66.1117 110.84 65.1965 109.923C64.2816 109.006 63.7673 107.761 63.7673 106.464V95.8034C63.7673 94.5058 64.2816 93.2617 65.1965 92.3442C66.1117 91.427 67.3528 90.9114 68.647 90.9114H97.588C98.8823 90.9114 100.123 91.427 101.039 92.3442C101.953 93.2617 102.468 94.5058 102.468 95.8034V101.4H102.47Z" fill="#CCEFF6"/>
<path d="M63.7673 71.544V65.402C63.7673 64.1045 64.2816 62.8603 65.1965 61.9428C66.1117 61.0257 67.3528 60.51 68.647 60.51H97.588C98.8823 60.51 100.123 61.0257 101.039 61.9428C101.953 62.8603 102.468 64.1045 102.468 65.402V76.066C102.468 77.3635 101.953 78.6076 101.039 79.5252C100.123 80.4423 98.8823 80.958 97.588 80.958H68.647C67.3528 80.958 66.1117 80.4423 65.1965 79.5252C64.2816 78.6076 63.7673 77.3635 63.7673 76.066V71.544ZM77.8445 71.6385C77.8441 70.7814 77.5904 69.9436 77.1153 69.2307C76.6401 68.5182 75.9645 67.9629 75.1746 67.6352C74.3844 67.3071 73.5153 67.2215 72.6767 67.389C71.838 67.5562 71.0677 67.9688 70.4631 68.5749C69.8585 69.1811 69.4465 69.9536 69.2798 70.7941C69.113 71.6348 69.1984 72.5064 69.5253 73.2982C69.8526 74.0905 70.4065 74.7674 71.1172 75.2438C71.828 75.7201 72.6637 75.9748 73.519 75.9752C74.087 75.9752 74.6499 75.8632 75.175 75.6456C75.7001 75.4276 76.1771 75.1085 76.5791 74.7055C76.981 74.3029 77.2998 73.8247 77.5176 73.2986C77.735 72.7722 77.8471 72.2083 77.8471 71.6385H77.8445Z" fill="#CCEFF6"/>
<path d="M102.47 40.2334V45.6651C102.47 46.3076 102.344 46.9437 102.099 47.5369C101.854 48.1304 101.494 48.6698 101.041 49.1239C100.588 49.5784 100.05 49.9388 99.4581 50.1845C98.866 50.4303 98.2315 50.5567 97.5906 50.5567H68.647C68.0062 50.5567 67.3716 50.4303 66.7796 50.1845C66.1876 49.9388 65.6499 49.5784 65.1965 49.1239C64.7435 48.6698 64.3841 48.1304 64.1389 47.5369C63.8937 46.9437 63.7673 46.3076 63.7673 45.6651V35.0011C63.7673 33.7036 64.2816 32.4595 65.1965 31.542C66.1117 30.6244 67.3528 30.1091 68.647 30.1091H97.588C98.8823 30.1091 100.123 30.6244 101.039 31.542C101.953 32.4595 102.468 33.7036 102.468 35.0011L102.47 40.2334ZM95.7006 40.3279C95.7006 39.4701 95.447 38.6319 94.9714 37.9186C94.4962 37.2054 93.8206 36.6497 93.03 36.3216C92.2398 35.9931 91.37 35.9075 90.5309 36.0747C89.6919 36.2419 88.9209 36.6549 88.3159 37.2614C87.7109 37.8679 87.299 38.6408 87.1322 39.482C86.9654 40.3231 87.0508 41.195 87.3785 41.9873C87.7057 42.7799 88.2601 43.4571 88.9715 43.9335C89.683 44.4099 90.5191 44.6642 91.3748 44.6642C92.5215 44.6635 93.6213 44.2064 94.4319 43.393C95.2428 42.58 95.6984 41.4775 95.6988 40.3279H95.7006Z" fill="#CCEFF6"/>
<path d="M66.9878 18.1843H96.6188C96.617 19.9397 95.9207 21.6227 94.6822 22.8635C93.4438 24.1047 91.7646 24.802 90.0136 24.8031H73.5901C71.8391 24.8031 70.1599 24.1058 68.9214 22.8646C67.6834 21.6231 66.9878 19.9397 66.9878 18.1843Z" fill="#5B5B5B"/>
<path d="M95.6988 101.494C95.6977 102.254 95.4991 103.001 95.1219 103.66L94.8597 103.574C94.8508 103.573 94.8423 103.57 94.8342 103.567C94.6493 103.502 94.4644 103.447 94.2784 103.399C94.1878 103.374 94.0972 103.349 94.0062 103.326C93.8831 103.294 93.7633 103.268 93.6435 103.241C93.4944 103.212 93.3487 103.183 93.2042 103.155C92.9423 103.108 92.6905 103.075 92.4339 103.049C91.5686 102.965 90.6977 102.954 89.8305 103.017C89.7869 103.017 89.7447 103.024 89.6993 103.024C89.6231 103.031 89.5506 103.035 89.4778 103.038C89.2496 103.052 89.0388 103.067 88.8458 103.082C88.561 103.104 88.2748 103.104 87.9897 103.082C87.9897 103.082 87.7331 103.02 87.2923 102.926C87.1274 102.464 87.0427 101.978 87.0423 101.487C87.0342 100.913 87.1399 100.343 87.3537 99.809C87.5674 99.276 87.8847 98.7907 88.2874 98.3818C88.6897 97.9725 89.1694 97.6474 89.6982 97.4257C90.227 97.204 90.7942 97.0898 91.3674 97.0898C91.9406 97.0898 92.5082 97.204 93.037 97.4257C93.5658 97.6474 94.0451 97.9725 94.4478 98.3818C94.8501 98.7907 95.1674 99.276 95.3811 99.809C95.5949 100.343 95.701 100.913 95.6928 101.487L95.6988 101.494Z" fill="white"/>
<path d="M91.3748 44.6645C93.7637 44.6645 95.7006 42.7227 95.7006 40.3279C95.7006 37.933 93.7637 35.9912 91.3748 35.9912C88.9859 35.9912 87.049 37.933 87.049 40.3279C87.049 42.7227 88.9859 44.6645 91.3748 44.6645Z" fill="white"/>
<path d="M69.1921 120.776H82.9528C82.4987 121.645 82.1633 122.571 81.9544 123.529L81.6977 123.514C79.7168 123.074 69.1921 120.776 69.1921 120.776Z" fill="#5B5B5B"/>
<path d="M73.5213 67.303C74.3773 67.3022 75.2138 67.5562 75.9257 68.0322C76.6375 68.5082 77.1926 69.1855 77.5206 69.9777C77.8482 70.7703 77.9344 71.6422 77.768 72.4837C77.6012 73.3253 77.1896 74.0982 76.5846 74.7051C75.9797 75.3116 75.2086 75.7249 74.3696 75.8925C73.5302 76.06 72.6604 75.9744 71.8698 75.6459C71.0792 75.3179 70.4032 74.7618 69.928 74.0485C69.4525 73.3353 69.1992 72.4963 69.1992 71.6385C69.1995 70.4893 69.6551 69.3871 70.4653 68.5742C71.2759 67.7612 72.3749 67.3041 73.5213 67.303Z" fill="white"/>
<path d="M63.396 18.1843H65.9383C63.6146 18.1851 61.3858 19.1107 59.7425 20.7582C58.0991 22.4057 57.1761 24.64 57.1757 26.9699V71.5445H54.6331V26.9699C54.6334 24.64 55.5568 22.4057 57.1998 20.7582C58.8431 19.1107 61.0719 18.1851 63.396 18.1843Z" fill="#5B5B5B"/>
<path d="M65.9383 120.776H63.396C61.0707 120.776 58.8409 119.85 57.1968 118.202C55.5527 116.553 54.629 114.318 54.629 111.987V71.5444H57.1757V111.987C57.1761 114.318 58.0991 116.552 59.7421 118.2C61.3854 119.848 63.6142 120.775 65.9383 120.776Z" fill="#5B5B5B"/>
<path d="M51.9631 96.321V107.443C51.9631 107.443 48.0005 106.763 42.6115 105.863C37.2225 104.964 37.2181 98.4827 40.098 96.321C42.9779 94.159 51.5922 96.321 51.5922 96.321H51.9631Z" fill="#FFCEB6"/>
<path d="M35.0607 67.8925V73.7398H33.299C32.6493 73.7398 32.3224 74.73 32.7854 75.3128L34.0312 76.8824L30.7478 81.0181L29.5009 79.4485C29.0394 78.8664 28.2551 79.2768 28.2551 80.0972V82.3174H23.6101V80.0972C23.6101 79.2776 22.8251 78.8664 22.3636 79.4485L21.1181 81.0181L17.8351 76.8824L19.0805 75.3128C19.542 74.73 19.2151 73.7398 18.5669 73.7398H16.8034V67.8925H18.5669C19.2166 67.8925 19.5439 66.899 19.0805 66.3195L17.8351 64.7473L21.1181 60.6116L22.3636 62.1805C22.8251 62.7596 23.6101 62.3521 23.6101 61.5291V59.3115H28.2551V61.5325C28.2551 62.3547 29.0394 62.7633 29.5009 62.1838L30.7463 60.615L34.0294 64.7473L32.7839 66.3162C32.3224 66.8953 32.6493 67.8892 33.2975 67.8892L35.0607 67.8925ZM28.6866 70.8167C28.6866 68.8975 27.4522 67.3427 25.9343 67.3427C24.4166 67.3427 23.1778 68.8975 23.1778 70.8167C23.1778 72.7355 24.4122 74.2862 25.9343 74.2862C27.4563 74.2862 28.6866 72.7285 28.6866 70.8167Z" fill="#CCEFF6"/>
<path d="M11.7306 54.2217H8.75226V88.8681H11.7306V54.2217Z" fill="#FFCEB6"/>
<path d="M11.7306 54.2217L40.8823 56.7704V86.3194L11.7306 88.8681" stroke="#5B5B5B" stroke-width="3.704" stroke-linecap="round" stroke-linejoin="round"/>
<path d="M11.7306 54.2217H8.75226V88.8681H11.7306V54.2217Z" stroke="#5B5B5B" stroke-width="3.704" stroke-linecap="round" stroke-linejoin="round"/>
<path d="M147.257 20.2561L121.657 25.7716V53.5442L147.257 50.6823" stroke="#5B5B5B" stroke-width="3.704" stroke-linecap="round" stroke-linejoin="round"/>
<path d="M149.872 20.2561H147.257V50.683H149.872V20.2561Z" stroke="#5B5B5B" stroke-width="3.704" stroke-linecap="round" stroke-linejoin="round"/>
<path d="M165.965 85.4268L139.125 87.7723V114.972L165.965 117.321" stroke="#5B5B5B" stroke-width="3.704" stroke-linecap="round" stroke-linejoin="round"/>
<path d="M168.707 85.4268H165.965V117.32H168.707V85.4268Z" stroke="#5B5B5B" stroke-width="3.704" stroke-linecap="round" stroke-linejoin="round"/>
<path d="M96.6192 18.1843H99.4525C100.604 18.184 101.744 18.4112 102.807 18.8524C103.871 19.2939 104.837 19.9408 105.651 20.7567C106.466 21.5727 107.111 22.541 107.552 23.6072C107.993 24.6733 108.22 25.8159 108.22 26.9699V111.987" stroke="#5B5B5B" stroke-width="3.704" stroke-linecap="round" stroke-linejoin="round"/>
<path d="M66.5229 18.1843H66.9878" stroke="#5B5B5B" stroke-width="3.704" stroke-linecap="round" stroke-linejoin="round"/>
<path d="M63.396 120.776C61.0707 120.776 58.8409 119.85 57.1968 118.202C55.5527 116.554 54.629 114.319 54.629 111.987V26.9699C54.629 25.8159 54.856 24.6733 55.2964 23.6072C55.7372 22.541 56.3829 21.5727 57.1972 20.7567C58.0111 19.9408 58.9777 19.2939 60.0412 18.8524C61.1048 18.4112 62.2448 18.184 63.396 18.1843" stroke="#5B5B5B" stroke-width="3.704" stroke-linecap="round" stroke-linejoin="round"/>
<path d="M91.8507 120.776H82.9528H69.1925H66.5229" stroke="#5B5B5B" stroke-width="3.704" stroke-linecap="round" stroke-linejoin="round"/>
<path d="M65.9383 120.776C63.6142 120.775 61.3854 119.849 59.7421 118.2C58.0991 116.552 57.1761 114.318 57.1757 111.987V26.9699C57.1761 24.64 58.0991 22.4057 59.7424 20.7582C61.3858 19.1107 63.6145 18.1851 65.9383 18.1843" stroke="#5B5B5B" stroke-width="3.704" stroke-linecap="round" stroke-linejoin="round"/>
<path d="M55.3915 119.244C54.3298 118.482 53.4645 117.477 52.8684 116.313C52.2719 115.149 51.9617 113.858 51.9631 112.55V26.4087C51.9628 25.328 52.175 24.2581 52.5877 23.2598C53 22.2618 53.6046 21.3547 54.3672 20.591C55.1297 19.827 56.0345 19.2216 57.0308 18.8086C58.0266 18.3956 59.0942 18.1836 60.1718 18.1843H66.5274" stroke="#5B5B5B" stroke-width="3.704" stroke-linecap="round" stroke-linejoin="round"/>
<path d="M66.5233 120.776H60.1722C58.4597 120.779 56.7897 120.242 55.3993 119.24" stroke="#5B5B5B" stroke-width="3.704" stroke-linecap="round" stroke-linejoin="round"/>
<path d="M96.6188 18.1843C96.617 19.9397 95.9207 21.6227 94.6822 22.8635C93.4438 24.1047 91.7646 24.802 90.0136 24.8031H73.5901C71.8391 24.8031 70.1599 24.1058 68.9214 22.8646C67.6834 21.6231 66.9878 19.9397 66.9878 18.1843H96.6188Z" stroke="#5B5B5B" stroke-width="3.704" stroke-linecap="round" stroke-linejoin="round"/>
<path d="M97.5888 50.5553H68.647C67.3528 50.5553 66.1117 50.0396 65.1965 49.1224C64.2816 48.2049 63.7673 46.9608 63.7673 45.6633V35.0011C63.7673 33.7036 64.2816 32.4595 65.1965 31.542C66.1117 30.6244 67.3528 30.1091 68.647 30.1091H97.588C98.8823 30.1091 100.123 30.6244 101.039 31.542C101.953 32.4595 102.468 33.7036 102.468 35.0011V45.6651C102.467 46.9619 101.953 48.2057 101.038 49.1228C100.123 50.0396 98.8827 50.5549 97.5888 50.5553Z" stroke="#5B5B5B" stroke-width="3.704" stroke-linecap="round" stroke-linejoin="round"/>
<path d="M97.5888 80.9561H68.647C67.3528 80.9561 66.1117 80.4408 65.1965 79.5233C64.2816 78.6058 63.7673 77.3617 63.7673 76.0645V65.402C63.7673 64.1045 64.2816 62.8603 65.1965 61.9428C66.1117 61.0257 67.3528 60.51 68.647 60.51H97.588C98.8823 60.51 100.123 61.0257 101.039 61.9428C101.953 62.8603 102.468 64.1045 102.468 65.402V76.066C102.467 77.3632 101.953 78.6065 101.038 79.5237C100.123 80.4408 98.8827 80.9558 97.5888 80.9561Z" stroke="#5B5B5B" stroke-width="3.704" stroke-linecap="round" stroke-linejoin="round"/>
<path d="M75.25 111.358H68.647C67.3528 111.358 66.1117 110.842 65.1965 109.925C64.2816 109.007 63.7673 107.763 63.7673 106.466V95.8034C63.7673 94.5058 64.2816 93.2617 65.1965 92.3442C66.1117 91.427 67.3528 90.9114 68.647 90.9114H97.588C98.8823 90.9114 100.123 91.427 101.039 92.3442C101.953 93.2617 102.468 94.5058 102.468 95.8034V106.467C102.468 107.121 102.337 107.767 102.082 108.368" stroke="#5B5B5B" stroke-width="3.704" stroke-linecap="round" stroke-linejoin="round"/>
<path d="M43.4683 71.5444H51.9631H54.629H57.1713H63.7699H66.9881" stroke="#5B5B5B" stroke-width="3.704" stroke-linecap="round" stroke-linejoin="round"/>
<path d="M87.2997 102.933C85.7059 102.593 81.751 101.869 79.4524 102.426C77.6256 102.874 73.7465 105.612 74.4624 109.373C74.6033 110.076 74.8688 110.748 75.2464 111.357C75.4501 111.691 75.6757 112.011 75.922 112.315C80.1313 117.529 86.7813 119.287 91.16 119.633L92.0349 120.528C94.1631 122.717 99.5561 128.252 100.991 129.797C100.991 129.797 105.175 146.239 109.802 150.877C116.063 157.158 119.647 158.949 123.67 159.549" stroke="#5B5B5B" stroke-width="3.704" stroke-linecap="round" stroke-linejoin="round"/>
<path d="M89.483 103.041C89.2544 103.056 89.044 103.07 88.851 103.085" stroke="#5B5B5B" stroke-width="3.704" stroke-linecap="round" stroke-linejoin="round"/>
<path d="M93.206 103.158C92.9438 103.111 92.6924 103.078 92.4354 103.052C91.5701 102.968 90.6992 102.957 89.832 103.02" stroke="#5B5B5B" stroke-width="3.704" stroke-linecap="round" stroke-linejoin="round"/>
<path d="M94.0081 103.326C93.8846 103.293 93.7648 103.267 93.645 103.24" stroke="#5B5B5B" stroke-width="3.704" stroke-linecap="round" stroke-linejoin="round"/>
<path d="M94.8357 103.566C94.6508 103.501 94.4659 103.446 94.2803 103.398" stroke="#5B5B5B" stroke-width="3.704" stroke-linecap="round" stroke-linejoin="round"/>
<path d="M113.979 115.948C111.445 114.836 109.032 113.466 106.777 111.859C105.194 110.789 103.575 109.614 102.034 108.434C100.883 107.549 99.7754 106.661 98.7695 105.808C97.6897 104.884 96.4554 104.157 95.1234 103.663L94.8616 103.577" stroke="#5B5B5B" stroke-width="3.704" stroke-linecap="round" stroke-linejoin="round"/>
<path d="M106.777 111.863C106.777 111.863 107.352 111.973 108.208 112.082C109.98 112.311 112.973 112.551 114.637 111.863" stroke="#5B5B5B" stroke-width="3.704" stroke-linecap="round" stroke-linejoin="round"/>
<path d="M89.7063 103.023C88.7689 104.053 84.2437 107.502 84.8265 111.856" stroke="#5B5B5B" stroke-width="3.704" stroke-linecap="round" stroke-linejoin="round"/>
<path d="M74.4624 109.374C76.1694 110.656 80.3632 111.434 82.005 110.51C82.005 110.51 82.9717 105.577 85.1427 103.935" stroke="#5B5B5B" stroke-width="3.704" stroke-linecap="round" stroke-linejoin="round"/>
<path d="M164.124 181.244C164.124 181.244 164.124 176.973 161.054 169.315C158.476 162.871 145.765 143.588 141.81 132.55C138.007 121.933 132.64 108.692 129.218 101.402C129.084 101.107 128.949 100.827 128.819 100.554C125.43 93.4761 119.217 77.056 115.261 70.2589C111.307 63.4618 108.22 62.5161 108.22 62.5161" stroke="#5B5B5B" stroke-width="3.704" stroke-linecap="round" stroke-linejoin="round"/>
<path d="M116.826 168.868L116.783 168.854V168.861C116.826 169.032 117.785 172.79 118.425 176.237C118.797 177.879 118.975 179.56 118.955 181.244" stroke="#5B5B5B" stroke-width="3.704" stroke-linecap="round" stroke-linejoin="round"/>
<path d="M80.7629 133.563C80.6464 134.151 80.5976 134.751 80.6176 135.35C80.6176 135.537 80.6287 135.722 80.6431 135.908C80.7644 137.251 81.2588 138.534 82.0701 139.611C83.6968 141.77 86.4473 145.206 88.0156 145.942C88.0156 145.942 103.545 165.423 110.708 167.295C115.403 168.523 116.554 168.81 116.785 168.861C116.799 168.865 116.812 168.867 116.826 168.869C116.831 168.87 116.835 168.87 116.84 168.869" stroke="#5B5B5B" stroke-width="3.704" stroke-linecap="round" stroke-linejoin="round"/>
<path d="M80.6176 135.908C80.6176 135.908 72.4574 134.963 68.0735 133.563C68.0735 133.563 61.0896 131.728 59.143 130.887C59.143 130.887 46.9406 126.347 43.8569 124.559C40.7736 122.772 42.2306 115.279 48.4035 117.07C52.0393 118.122 55.2428 119.189 55.3918 119.24" stroke="#5B5B5B" stroke-width="3.704" stroke-linecap="round" stroke-linejoin="round"/>
<path d="M58.1841 123.15C58.1841 123.15 57.7563 125.08 57.6509 126.045" stroke="#5B5B5B" stroke-width="3.704" stroke-linecap="round" stroke-linejoin="round"/>
<path d="M69.4432 124.971C69.4432 124.971 69.015 127.992 68.9089 128.958" stroke="#5B5B5B" stroke-width="3.704" stroke-linecap="round" stroke-linejoin="round"/>
<path d="M116.783 168.854C116.783 168.854 118.796 168.887 120.074 168.854L118.428 176.235" stroke="#5B5B5B" stroke-width="3.704" stroke-linecap="round" stroke-linejoin="round"/>
<path d="M51.5922 96.3208C51.5922 96.3208 42.9709 94.1581 40.098 96.3208C37.2251 98.4832 37.2218 104.964 42.6115 105.863C48.0012 106.762 51.9631 107.443 51.9631 107.443" stroke="#5B5B5B" stroke-width="3.704" stroke-linecap="round" stroke-linejoin="round"/>
<path d="M82.9528 120.776C82.4991 121.645 82.1633 122.571 81.9544 123.529C81.8179 124.121 81.7321 124.724 81.6978 125.331" stroke="#5B5B5B" stroke-width="3.704" stroke-linecap="round" stroke-linejoin="round"/>
<path d="M69.1921 120.776C69.1921 120.776 79.7168 123.074 81.6959 123.514" stroke="#5B5B5B" stroke-width="3.704" stroke-linecap="round" stroke-linejoin="round"/>
<path d="M77.8471 71.6385C77.8471 72.496 77.5934 73.3338 77.1182 74.0467C76.6431 74.7592 75.9678 75.3145 75.1776 75.6426C74.3877 75.9707 73.5183 76.0563 72.6796 75.8891C71.8409 75.7219 71.0707 75.3093 70.4661 74.7032C69.8611 74.0971 69.4495 73.3249 69.2824 72.4841C69.1156 71.6433 69.201 70.7718 69.5279 69.9799C69.8548 69.1877 70.4087 68.5108 71.1198 68.0344C71.8306 67.5577 72.6663 67.3033 73.5213 67.303C74.0896 67.303 74.6521 67.4149 75.1768 67.6329C75.7016 67.8505 76.1786 68.1701 76.5802 68.5727C76.9818 68.9753 77.3005 69.4531 77.518 69.9792C77.7354 70.5052 77.8471 71.0691 77.8471 71.6385Z" stroke="#5B5B5B" stroke-width="3.704" stroke-linecap="round" stroke-linejoin="round"/>
<path d="M117.796 40.2334H108.22H102.47H97.9124" stroke="#5B5B5B" stroke-width="3.704" stroke-linecap="round" stroke-linejoin="round"/>
<path d="M91.3748 44.6645C93.7637 44.6645 95.7006 42.7227 95.7006 40.3279C95.7006 37.933 93.7637 35.9912 91.3748 35.9912C88.9859 35.9912 87.049 37.933 87.049 40.3279C87.049 42.7227 88.9859 44.6645 91.3748 44.6645Z" stroke="#5B5B5B" stroke-width="3.704" stroke-linecap="round" stroke-linejoin="round"/>
<path d="M135.955 101.4H129.218H108.22H102.47H97.9124" stroke="#5B5B5B" stroke-width="3.704" stroke-linecap="round" stroke-linejoin="round"/>
<path d="M87.2997 102.932C87.7364 103.027 87.9975 103.089 87.9975 103.089C88.2826 103.111 88.5688 103.111 88.8536 103.089C89.0492 103.077 89.26 103.063 89.4856 103.045C89.558 103.045 89.6309 103.038 89.7071 103.03C89.7507 103.03 89.7928 103.03 89.838 103.024C90.7051 102.962 91.576 102.974 92.4413 103.056C92.6887 103.082 92.9464 103.118 93.2119 103.161C93.3565 103.187 93.5022 103.217 93.6509 103.247C93.7707 103.273 93.8909 103.302 94.014 103.333C94.1046 103.356 94.1956 103.381 94.2862 103.406C94.4718 103.457 94.6567 103.512 94.842 103.574C94.8501 103.577 94.8586 103.58 94.8675 103.581C94.9529 103.61 95.0387 103.639 95.1241 103.672V103.668C95.4555 103.092 95.65 102.447 95.6932 101.784C95.7361 101.12 95.6263 100.455 95.3719 99.841C95.1179 99.2267 94.7262 98.6792 94.2274 98.241C93.7282 97.8028 93.1354 97.4855 92.4949 97.3134C91.8541 97.1418 91.1825 97.1199 90.5317 97.2497C89.8812 97.3794 89.2692 97.6575 88.743 98.0623C88.2168 98.4671 87.7904 98.988 87.4968 99.5845C87.2036 100.181 87.0508 100.837 87.0508 101.502C87.052 101.99 87.1363 102.473 87.2997 102.932Z" stroke="#5B5B5B" stroke-width="3.704" stroke-linecap="round" stroke-linejoin="round"/>
<path d="M35.0607 67.8925H33.299C32.6493 67.8925 32.3224 66.899 32.7854 66.3195L34.0294 64.7473L30.7463 60.6116L29.5009 62.1805C29.0394 62.7596 28.2551 62.3521 28.2551 61.5291V59.3115H23.6101V61.5325C23.6101 62.3547 22.8251 62.7633 22.3636 62.1838L21.1181 60.615L17.8351 64.7473L19.0805 66.3195C19.542 66.899 19.2151 67.8925 18.5669 67.8925H16.8034V73.7398H18.5669C19.2166 73.7398 19.5439 74.73 19.0805 75.3128L17.8351 76.8824L21.1181 81.0181L22.3636 79.4485C22.8251 78.8664 23.6101 79.2768 23.6101 80.0972V82.3174H28.2551V80.0972C28.2551 79.2776 29.0394 78.8664 29.5009 79.4485L30.7463 81.0181L34.0294 76.8824L32.7839 75.3128C32.3224 74.73 32.6493 73.7398 33.2975 73.7398H35.0592V67.8925H35.0607Z" stroke="#5B5B5B" stroke-width="3.704" stroke-linecap="round" stroke-linejoin="round"/>
<path d="M28.6866 70.8168C28.6866 72.7311 27.4522 74.2863 25.9342 74.2863C24.4166 74.2863 23.1778 72.7311 23.1778 70.8168C23.1778 68.902 24.4122 67.3428 25.9342 67.3428C27.4563 67.3428 28.6866 68.8976 28.6866 70.8168Z" stroke="#5B5B5B" stroke-width="3.704" stroke-linecap="round" stroke-linejoin="round"/>
<path d="M136.282 35.8316C135.583 35.5143 134.816 35.3726 134.049 35.4197C132.371 35.5287 130.914 36.7347 129.916 38.4785C128.873 40.3777 128.395 42.5371 128.539 44.7006C128.546 44.8129 128.554 44.9297 128.565 45.0439" stroke="#5B5B5B" stroke-width="3.704" stroke-linecap="round" stroke-linejoin="round"/>
<path d="M140.636 43.5245C140.636 43.4111 140.63 43.2987 140.622 43.1812C140.525 41.3139 139.905 39.5119 138.832 37.9823C138.501 37.5237 138.119 37.1059 137.692 36.7371" stroke="#5B5B5B" stroke-width="3.704" stroke-linecap="round" stroke-linejoin="round"/>
<path d="M140.636 43.5245L144.232 43.2913C144.225 43.1786 144.225 43.0655 144.217 42.948C144.061 39.9816 143.078 37.1181 141.381 34.6833C139.431 31.9893 136.681 30.3759 133.74 30.5691C130.911 30.7552 128.473 32.7722 126.883 35.6994C125.395 38.5372 124.725 41.735 124.951 44.9328C124.958 45.0489 124.969 45.162 124.976 45.2761L128.572 45.0437" stroke="#5B5B5B" stroke-width="3.704" stroke-linecap="round" stroke-linejoin="round"/>
<path d="M137.692 36.7379L137.869 36.4101C137.986 36.1821 138.03 35.9241 137.998 35.6702C137.965 35.4159 137.857 35.1779 137.687 34.9862C137.616 34.9069 137.526 34.8468 137.425 34.812C137.324 34.7771 137.216 34.7686 137.111 34.7871C137.006 34.8057 136.907 34.8509 136.824 34.9184C136.742 34.9858 136.677 35.0733 136.638 35.1727L136.282 35.8318L134.827 38.518C134.64 38.4517 134.441 38.4242 134.243 38.438C133.171 38.5077 132.375 39.7384 132.469 41.1842C132.564 42.6304 133.512 43.7514 134.583 43.6817C135.654 43.6124 136.45 42.3824 136.356 40.9355C136.33 40.5255 136.23 40.1232 136.062 39.7484L137.692 36.7379Z" stroke="#5B5B5B" stroke-width="3.704" stroke-linecap="round" stroke-linejoin="round"/>
<path d="M133.736 30.5698L134.049 35.4199" stroke="#5B5B5B" stroke-width="3.704" stroke-linecap="round" stroke-linejoin="round"/>
<path d="M126.905 35.7151L129.534 38.4528" stroke="#5B5B5B" stroke-width="3.704" stroke-linecap="round" stroke-linejoin="round"/>
<path d="M141.247 34.7786L139.046 37.8336" stroke="#5B5B5B" stroke-width="3.704" stroke-linecap="round" stroke-linejoin="round"/>
<path d="M155.11 101.884L157.25 99.1607C157.871 99.3739 158.544 99.3783 159.168 99.174C159.791 98.9698 160.332 98.5675 160.708 98.0278C161.264 97.3001 161.607 96.4315 161.699 95.5195C161.673 95.5529 161.649 95.5888 161.623 95.6248C161.399 95.9484 161.101 96.2127 160.754 96.3951C160.406 96.5779 160.019 96.6732 159.627 96.6732C159.235 96.6732 158.848 96.5779 158.5 96.3951C158.153 96.2127 157.854 95.9484 157.631 95.6248C157.095 94.8889 156.806 94.0007 156.806 93.0895C156.806 92.1779 157.095 91.29 157.631 90.5538C157.657 90.5197 157.685 90.4878 157.717 90.4585C156.926 90.6183 156.222 91.0657 155.741 91.7148C155.283 92.3388 154.966 93.055 154.812 93.8138C154.659 94.5731 154.672 95.3564 154.851 96.1097L152.711 98.833" stroke="#5B5B5B" stroke-width="3.704" stroke-linecap="round" stroke-linejoin="round"/>
<path d="M150.305 101.884L147.265 105.746L147.297 105.786C146.984 105.8 146.679 105.885 146.403 106.033C146.127 106.182 145.887 106.391 145.702 106.644C145.266 107.246 145.031 107.97 145.031 108.714C145.031 109.457 145.266 110.182 145.702 110.783C145.885 111.047 146.128 111.263 146.412 111.411C146.696 111.56 147.011 111.638 147.332 111.638C147.652 111.638 147.967 111.56 148.251 111.411C148.535 111.263 148.778 111.047 148.961 110.783C149.398 110.2 149.634 109.49 149.633 108.76L149.665 108.799L151.612 106.328L152.705 104.936" stroke="#5B5B5B" stroke-width="3.704" stroke-linecap="round" stroke-linejoin="round"/>
<path d="M152.705 98.833L150.565 96.1097C150.744 95.356 150.756 94.5727 150.602 93.8135C150.448 93.0542 150.13 92.3384 149.671 91.7148C149.192 91.0665 148.491 90.6186 147.702 90.4585C147.73 90.4889 147.757 90.5208 147.782 90.5538C148.319 91.2893 148.609 92.1775 148.609 93.0895C148.609 94.0011 148.319 94.8893 147.782 95.6248C147.559 95.9484 147.261 96.2127 146.914 96.3951C146.567 96.5779 146.18 96.6732 145.788 96.6732C145.396 96.6732 145.01 96.5779 144.663 96.3951C144.315 96.2127 144.017 95.9484 143.794 95.6248C143.765 95.5888 143.743 95.5529 143.718 95.5195C143.81 96.4311 144.152 97.2993 144.706 98.0278C145.082 98.5679 145.623 98.9705 146.247 99.1748C146.872 99.379 147.546 99.3742 148.167 99.1607L150.307 101.884L152.704 104.935L155.744 108.797L155.773 108.757C155.773 109.487 156.008 110.197 156.444 110.781C156.627 111.045 156.87 111.26 157.154 111.409C157.438 111.558 157.754 111.636 158.073 111.636C158.394 111.636 158.709 111.558 158.993 111.409C159.277 111.26 159.52 111.045 159.703 110.781C160.142 110.181 160.378 109.455 160.378 108.711C160.378 107.967 160.142 107.242 159.703 106.642C159.519 106.388 159.281 106.179 159.005 106.03C158.73 105.882 158.425 105.798 158.112 105.784L158.141 105.743L155.105 101.881L152.705 98.833Z" stroke="#5B5B5B" stroke-width="3.704" stroke-linecap="round" stroke-linejoin="round"/>
<path d="M150.305 101.884L151.612 106.326" stroke="#5B5B5B" stroke-width="3.704" stroke-linecap="round" stroke-linejoin="round"/>
</svg>
