<svg width="187" height="185" viewBox="0 0 187 185" fill="none" xmlns="http://www.w3.org/2000/svg">
<path d="M178.075 51.355V56.1346H111.396V51.355H178.075ZM124.403 53.9429C124.402 53.722 124.338 53.5062 124.216 53.3227C124.094 53.1392 123.922 52.9961 123.72 52.9116C123.518 52.8271 123.295 52.8052 123.081 52.8482C122.867 52.8912 122.67 52.9976 122.515 53.1541C122.36 53.3101 122.255 53.5092 122.212 53.7257C122.17 53.9422 122.191 54.1669 122.275 54.3708C122.359 54.575 122.5 54.7493 122.682 54.8723C122.864 54.995 123.077 55.0607 123.296 55.061C123.442 55.0618 123.587 55.0332 123.722 54.9773C123.857 54.9213 123.98 54.8386 124.083 54.7341C124.186 54.6299 124.268 54.5061 124.324 54.3696C124.379 54.2332 124.407 54.0868 124.406 53.9392L124.403 53.9429ZM120.05 53.9429C120.05 53.722 119.985 53.5062 119.863 53.3227C119.742 53.1392 119.569 52.9961 119.367 52.9116C119.165 52.8271 118.943 52.8052 118.729 52.8482C118.514 52.8912 118.317 52.9976 118.163 53.1537C118.008 53.3098 117.903 53.5085 117.86 53.725C117.817 53.9415 117.839 54.1661 117.922 54.3704C118.006 54.5743 118.147 54.7489 118.329 54.872C118.51 54.9947 118.724 55.0607 118.942 55.061C119.088 55.0618 119.233 55.0332 119.368 54.9773C119.504 54.9213 119.627 54.8386 119.73 54.7344C119.833 54.6299 119.915 54.5061 119.97 54.3696C120.026 54.2332 120.054 54.0868 120.054 53.9392L120.05 53.9429ZM115.696 53.9429C115.696 53.722 115.631 53.5062 115.51 53.3227C115.388 53.1392 115.215 52.9961 115.013 52.9116C114.811 52.8271 114.589 52.8052 114.375 52.8482C114.16 52.8912 113.964 52.9976 113.809 53.1541C113.654 53.3101 113.549 53.5092 113.506 53.7257C113.464 53.9422 113.485 54.1669 113.569 54.3708C113.653 54.575 113.794 54.7493 113.976 54.8723C114.158 54.995 114.371 55.0607 114.59 55.061C114.736 55.0621 114.881 55.034 115.017 54.978C115.152 54.922 115.275 54.8397 115.379 54.7352C115.482 54.631 115.564 54.5068 115.62 54.37C115.676 54.2336 115.704 54.0872 115.703 53.9392L115.696 53.9429Z" fill="#5B5B5B"/>
<path d="M164.78 151.232H92.0182L82.8674 144.687L55.4943 125.107L55.5353 124.922C55.9277 125.044 56.3367 125.107 56.7479 125.107H125.42C126.142 125.108 126.852 124.915 127.476 124.548L164.78 151.232ZM125.156 141.193H144.727L138.977 137.081L126.207 127.943H67.132L72.2499 131.606L85.6519 141.193H125.156ZM109.192 148.72H137.591L130.511 143.656H102.041L109.121 148.72H109.192Z" fill="#CCEFF6"/>
<path d="M144.727 141.193H125.156V141.077L119.82 137.261H138.853L138.977 137.082L144.727 141.193Z" fill="#CCEFF6"/>
<path d="M94.0111 131.606L88.8931 127.943H126.207L138.977 137.081L138.853 137.26H119.82L125.155 141.077V141.193H85.6471L72.2451 131.606H94.0111Z" fill="#CCEFF6"/>
<path d="M137.591 148.72H109.192H109.12L102.04 143.656H130.439H130.511L137.591 148.72Z" fill="#F7CEDC"/>
<path d="M129.506 96.2868V120.983C129.506 121.525 129.401 122.061 129.195 122.562C128.99 123.063 128.689 123.517 128.309 123.9C127.93 124.283 127.479 124.587 126.984 124.794C126.488 125.001 125.957 125.107 125.42 125.107H56.7475C56.2113 125.107 55.6803 125.001 55.1848 124.794C54.6893 124.587 54.2392 124.283 53.8598 123.9C53.4808 123.517 53.1802 123.062 52.9749 122.561C52.7701 122.061 52.6647 121.524 52.665 120.983V71.5937C52.665 70.4994 53.0951 69.4502 53.8606 68.6766C54.626 67.9029 55.6648 67.468 56.7475 67.4673H125.42C125.957 67.4673 126.488 67.5737 126.984 67.7813C127.48 67.9885 127.931 68.2925 128.31 68.6758C128.689 69.0591 128.99 69.5144 129.196 70.0152C129.401 70.5164 129.507 71.0532 129.506 71.5952V96.2868ZM126.397 118.727V73.8458C126.397 72.9861 126.059 72.162 125.457 71.5544C124.855 70.9465 124.04 70.6054 123.189 70.6054H58.9796C58.1287 70.6054 57.313 70.9465 56.7113 71.5544C56.11 72.162 55.772 72.9861 55.772 73.8458V118.727C55.772 119.586 56.11 120.411 56.7113 121.018C57.313 121.626 58.1287 121.967 58.9796 121.967H123.188C124.039 121.967 124.855 121.626 125.456 121.018C126.058 120.411 126.396 119.586 126.396 118.727H126.397Z" fill="#CCEFF6"/>
<path d="M126.396 73.8458V87.7202H125.786V87.487C125.786 83.5266 123.578 81.5911 120.88 81.5911H120.591C120.416 81.5915 120.249 81.5218 120.126 81.3976C120.002 81.2734 119.932 81.1047 119.932 80.9287V79.8829C120.354 79.6723 120.71 79.3468 120.959 78.9427C121.208 78.5387 121.34 78.0723 121.34 77.5967V76.1761C121.34 75.4995 121.074 74.8508 120.601 74.3722C120.127 73.894 119.485 73.6252 118.815 73.6252C118.145 73.6252 117.503 73.894 117.029 74.3722C116.556 74.8508 116.29 75.4995 116.29 76.1761V77.5967C116.29 78.0723 116.422 78.5387 116.671 78.9427C116.92 79.3468 117.276 79.6723 117.698 79.8829V80.9324C117.698 81.1081 117.629 81.276 117.506 81.4006C117.383 81.5259 117.215 81.5974 117.04 81.5993C116.289 81.5737 115.541 81.7064 114.844 81.9889C114.146 82.2718 113.515 82.6981 112.989 83.2412C112.464 83.7839 112.057 84.4316 111.793 85.1426C111.53 85.8536 111.416 86.6121 111.459 87.3702H111.396V70.6072H123.188C124.038 70.6072 124.854 70.9482 125.456 71.5555C126.057 72.1627 126.396 72.9864 126.396 73.8458Z" fill="#F7CEDC"/>
<path d="M125.713 120.527L125.85 120.537C125.556 120.977 125.16 121.338 124.697 121.587C124.233 121.836 123.716 121.966 123.191 121.966H111.396V121.606H111.459C111.416 120.847 111.53 120.089 111.793 119.378C112.057 118.667 112.464 118.019 112.989 117.477C113.515 116.933 114.146 116.507 114.844 116.224C115.541 115.942 116.289 115.809 117.04 115.835C117.126 115.835 117.212 115.818 117.292 115.785C117.372 115.752 117.445 115.703 117.506 115.642C117.567 115.58 117.616 115.507 117.649 115.426C117.682 115.346 117.7 115.259 117.7 115.172V114.123C117.277 113.912 116.921 113.587 116.672 113.183C116.423 112.778 116.291 112.312 116.291 111.836V110.417C116.291 109.74 116.557 109.091 117.03 108.613C117.504 108.134 118.146 107.866 118.816 107.866C119.486 107.866 120.128 108.134 120.602 108.613C121.075 109.091 121.341 109.74 121.341 110.417V111.836C121.341 112.312 121.209 112.778 120.96 113.183C120.711 113.587 120.355 113.912 119.932 114.123V115.174C119.933 115.35 120.003 115.519 120.126 115.643C120.25 115.767 120.418 115.837 120.592 115.837H120.88C123.291 115.834 125.308 117.379 125.713 120.527Z" fill="#5B5B5B"/>
<path d="M125.787 104.453V104.789H111.396V104.327H111.459C111.416 103.57 111.53 102.811 111.794 102.1C112.057 101.389 112.465 100.742 112.99 100.199C113.515 99.6564 114.146 99.2297 114.844 98.9472C115.541 98.6647 116.289 98.532 117.04 98.5575C117.215 98.5575 117.383 98.4871 117.507 98.3626C117.63 98.2384 117.699 98.0701 117.7 97.8943V96.8456C117.277 96.635 116.921 96.3095 116.672 95.9051C116.423 95.501 116.291 95.0346 116.291 94.5583V93.1388C116.291 92.4622 116.557 91.8135 117.03 91.3353C117.504 90.8567 118.146 90.5879 118.816 90.5879C119.486 90.5879 120.128 90.8567 120.602 91.3353C121.075 91.8135 121.341 92.4622 121.341 93.1388V94.5612C121.341 95.0372 121.209 95.5036 120.96 95.908C120.711 96.3121 120.355 96.638 119.932 96.8486V97.8917C119.933 98.0678 120.003 98.2365 120.126 98.3607C120.25 98.4853 120.418 98.555 120.592 98.555H120.88C123.579 98.5576 125.787 100.496 125.787 104.453Z" fill="#5B5B5B"/>
<path d="M125.787 87.4905V87.7237H111.396V87.3638H111.459C111.417 86.6064 111.531 85.8483 111.795 85.1383C112.059 84.4281 112.467 83.7812 112.992 83.2388C113.517 82.6964 114.148 82.2708 114.845 81.9884C115.542 81.7062 116.29 81.5735 117.04 81.5991C117.215 81.5987 117.383 81.5291 117.507 81.4049C117.63 81.2807 117.699 81.1124 117.7 80.9367V79.8827C117.277 79.6725 116.921 79.3466 116.672 78.9426C116.423 78.5385 116.291 78.0725 116.291 77.5965V76.1759C116.291 75.4993 116.557 74.8506 117.03 74.3724C117.504 73.8938 118.146 73.625 118.816 73.625C119.486 73.625 120.128 73.8938 120.602 74.3724C121.075 74.8506 121.341 75.4993 121.341 76.1759V77.5965C121.341 78.0725 121.209 78.5385 120.96 78.9426C120.711 79.3466 120.355 79.6725 119.932 79.8827V80.9322C119.933 81.1083 120.003 81.277 120.126 81.4012C120.25 81.5253 120.418 81.595 120.592 81.5947H120.88C123.579 81.5991 125.787 83.5328 125.787 87.4905Z" fill="#5B5B5B"/>
<path d="M118.946 52.824C119.165 52.8236 119.379 52.8885 119.561 53.0112C119.743 53.1335 119.885 53.3081 119.97 53.512C120.054 53.7163 120.076 53.9413 120.033 54.1582C119.991 54.3751 119.885 54.5741 119.731 54.7306C119.576 54.887 119.379 54.9938 119.164 55.0368C118.949 55.0798 118.727 55.0575 118.525 54.973C118.323 54.8881 118.15 54.7447 118.028 54.5608C117.907 54.3765 117.842 54.1604 117.843 53.9395C117.843 53.6436 117.959 53.3604 118.166 53.1513C118.373 52.9422 118.653 52.8247 118.946 52.824Z" fill="#FFCEB6"/>
<path d="M114.593 52.824C114.812 52.8236 115.026 52.8889 115.208 53.0116C115.391 53.1343 115.533 53.3085 115.617 53.5128C115.7 53.717 115.722 53.9417 115.68 54.1586C115.637 54.3754 115.532 54.5745 115.377 54.7309C115.222 54.8874 115.025 54.9938 114.81 55.0368C114.596 55.0798 114.373 55.0575 114.171 54.9726C113.969 54.8881 113.796 54.7447 113.675 54.5608C113.554 54.3765 113.489 54.1604 113.49 53.9395C113.49 53.6436 113.606 53.36 113.813 53.1509C114.02 52.9419 114.301 52.8243 114.593 52.824Z" fill="#CCEFF6"/>
<path d="M100.342 19.6245V24.4086H8.77997V19.6245H100.342ZM21.7937 22.2132C21.7933 21.9923 21.7286 21.7765 21.6069 21.593C21.4853 21.4095 21.3126 21.2664 21.1107 21.1819C20.9084 21.0977 20.6861 21.0755 20.472 21.1185C20.2576 21.1619 20.0605 21.2683 19.9059 21.4243C19.7513 21.5804 19.6459 21.7795 19.6034 21.996C19.5605 22.2129 19.5823 22.4371 19.6659 22.6414C19.7498 22.8453 19.8911 23.0199 20.073 23.1426C20.2546 23.2653 20.4683 23.3309 20.6869 23.3313C20.8322 23.3317 20.9764 23.3028 21.1107 23.2468C21.2453 23.1904 21.3673 23.1081 21.4701 23.0043C21.5729 22.9005 21.6543 22.7771 21.7097 22.6414C21.7652 22.5057 21.7937 22.36 21.7937 22.2132ZM17.4409 22.2132C17.4409 21.9926 17.3758 21.7765 17.2541 21.593C17.1328 21.4095 16.9601 21.2664 16.7582 21.1823C16.5563 21.0977 16.3341 21.0755 16.1196 21.1185C15.9051 21.1615 15.7084 21.2679 15.5534 21.424C15.3989 21.58 15.2935 21.7791 15.251 21.9956C15.2081 22.2121 15.2299 22.4364 15.3131 22.6407C15.3967 22.8449 15.5379 23.0192 15.7195 23.1422C15.901 23.2649 16.1148 23.3309 16.3333 23.3313C16.479 23.3317 16.6229 23.3031 16.7575 23.2468C16.8921 23.1908 17.0141 23.1085 17.1169 23.0047C17.2197 22.9009 17.3015 22.7775 17.3569 22.6418C17.4128 22.5057 17.4412 22.3604 17.4409 22.2132ZM13.0873 22.2132C13.0873 21.9923 13.0222 21.7765 12.9006 21.593C12.7789 21.4095 12.6062 21.2664 12.4043 21.1819C12.2024 21.0977 11.9801 21.0755 11.7657 21.1185C11.5512 21.1619 11.3545 21.2683 11.1999 21.4243C11.0449 21.5804 10.9399 21.7795 10.897 21.996C10.8545 22.2129 10.8763 22.4371 10.9599 22.6414C11.0435 22.8453 11.1851 23.0199 11.3667 23.1426C11.5486 23.2653 11.762 23.3309 11.9809 23.3313C12.1262 23.3317 12.2701 23.3028 12.4047 23.2468C12.5389 23.1904 12.6609 23.1081 12.7637 23.0043C12.8665 22.9005 12.9479 22.7771 13.0037 22.6414C13.0592 22.5057 13.0877 22.36 13.0873 22.2132Z" fill="#5B5B5B"/>
<path d="M97.1861 88.6312V90.8265L95.0342 89.7466C95.2554 89.3774 95.5738 89.0775 95.9536 88.8807C96.3337 88.6838 96.7604 88.5974 97.1861 88.6312Z" fill="#FFCEB6"/>
<path d="M88.8935 127.943L94.0114 131.606H72.2455L67.1272 127.943H88.8935Z" fill="#CCEFF6"/>
<path d="M79.192 43.9446C79.2711 44.0024 79.337 44.0766 79.3858 44.1622C79.4342 44.2479 79.4645 44.3428 79.4742 44.441C79.4838 44.5392 79.4727 44.6386 79.442 44.732C79.4109 44.8254 79.3606 44.9114 79.2944 44.9841L77.3342 47.076L75.3073 49.2362L71.4955 53.3074L71.2707 53.3389C71.1834 53.2422 71.0832 53.1588 70.9723 53.0906C70.7286 52.9352 70.4494 52.8466 70.1613 52.8333V52.827L75.3403 47.2236L78.2805 44.0354C78.3452 43.965 78.4236 43.9086 78.5108 43.8701C78.5981 43.8319 78.6924 43.8119 78.7874 43.8123C78.9328 43.8126 79.074 43.859 79.192 43.9446Z" fill="#5B5B5B"/>
<path d="M74.7822 79.5498L77.1223 80.7279C76.6652 82.1637 74.7808 81.6922 74.7808 81.6922L74.7822 79.5498Z" fill="#FFCEB6"/>
<path d="M73.7472 36.3765V38.573L71.598 37.4927C71.8187 37.1238 72.1364 36.8243 72.5162 36.6274C72.8956 36.4302 73.3216 36.3435 73.7472 36.3765Z" fill="#FFCEB6"/>
<path d="M72.2421 56.6217C72.5779 57.5615 71.5425 58.512 71.5425 58.512C70.7497 57.9622 69.1174 58.7129 68.6478 59.6112C67.2218 59.4166 67.2577 58.6659 67.7566 57.9593C68.0975 57.4996 68.5231 57.1103 69.0094 56.8126C70.1251 56.135 71.906 55.6831 72.2421 56.6217Z" fill="#FFCEB6"/>
<path d="M71.1224 54.9412C72.3915 55.6678 72.2418 56.6217 72.2418 56.6217C71.9056 55.683 70.1247 56.1349 69.0083 56.8107C68.5217 57.1084 68.0964 57.4977 67.7554 57.9577L67.5931 57.8469C67.4629 57.8399 67.3339 57.8198 67.2074 57.7876C66.1568 57.5236 66.7814 56.5624 66.825 56.493C67.3845 56.2784 67.9141 55.9922 68.4015 55.6415C68.542 55.5321 68.6611 55.3968 68.7524 55.243L68.8548 55.2582C68.8548 55.2582 70.2734 54.4545 71.1224 54.9412Z" fill="#FFCEB6"/>
<path d="M68.6474 59.6091C69.1171 58.709 70.7493 57.9602 71.5422 58.51C72.3354 59.0601 71.8872 60.5578 70.0097 62.7065C69.5593 63.3037 68.9825 63.7916 68.3213 64.1341C67.6597 64.477 66.9309 64.6657 66.1879 64.6868L64.8515 67.4294V67.4672H57.9727V67.4312L60.843 61.2896L63.507 56.1589C63.6789 55.8771 63.9259 55.6495 64.2199 55.5027C65.3933 54.8647 66.6635 54.4295 67.9792 54.2148C68.1216 54.2056 68.2647 54.2204 68.4023 54.259C68.498 54.2882 68.5857 54.3401 68.6582 54.4098C68.7306 54.4795 68.7861 54.5652 68.8201 54.6604C68.8545 54.7553 68.866 54.8573 68.8545 54.9577C68.8427 55.0582 68.8083 55.1542 68.7532 55.2391C68.6622 55.393 68.5432 55.5283 68.4023 55.6376C67.9149 55.9883 67.3853 56.2745 66.8262 56.4892C66.655 56.5585 66.4938 56.6245 66.3503 56.6782L66.3751 56.7468L61.9353 61.4905C61.8692 61.5628 61.8189 61.6484 61.7878 61.7419C61.7571 61.8353 61.746 61.9343 61.7556 62.0321C61.7656 62.13 61.7956 62.2249 61.844 62.3102C61.8928 62.3958 61.9586 62.4696 62.0378 62.5274C62.1565 62.613 62.2988 62.659 62.4449 62.6586C62.54 62.6586 62.6343 62.639 62.7215 62.6004C62.8088 62.5623 62.8872 62.5059 62.9519 62.4355L67.0969 58.0069L67.2082 57.7837C67.3347 57.8163 67.4637 57.836 67.5943 57.843L67.7555 57.9539C67.2574 58.6642 67.2234 59.4149 68.6474 59.6091Z" fill="#FFCEB6"/>
<path d="M71.2719 53.3422C71.8535 54.021 71.1232 54.9411 71.1232 54.9411C70.2738 54.454 68.859 55.2551 68.859 55.2551L68.7565 55.2399C68.8113 55.1553 68.846 55.059 68.8575 54.9585C68.8693 54.858 68.8575 54.7561 68.8235 54.6612C68.7894 54.5659 68.734 54.4803 68.6611 54.4106C68.5886 54.3409 68.501 54.289 68.4052 54.2597C68.2677 54.2211 68.1245 54.2063 67.9822 54.2156C68.2026 53.82 68.5176 53.4868 68.8985 53.2462C69.2794 53.0059 69.7139 52.8658 70.1625 52.8391C70.4502 52.8525 70.7297 52.9411 70.9734 53.0964C71.084 53.1639 71.1846 53.2465 71.2719 53.3422Z" fill="#FFCEB6"/>
<path d="M70.9738 121.604V121.965H58.9796C58.4589 121.966 57.946 121.838 57.4852 121.593C57.0249 121.348 56.6307 120.992 56.337 120.558L56.3833 120.526C56.7878 117.376 58.8058 115.833 61.2127 115.833H61.5049C61.6787 115.833 61.8455 115.763 61.9686 115.639C62.0917 115.515 62.1605 115.346 62.1605 115.171V114.121C61.7386 113.911 61.3832 113.585 61.1347 113.181C60.8862 112.777 60.7549 112.31 60.7557 111.835V110.415C60.749 110.076 60.8097 109.739 60.9339 109.424C61.0578 109.109 61.2431 108.823 61.4779 108.58C61.7131 108.338 61.9934 108.146 62.3029 108.015C62.6124 107.884 62.9445 107.816 63.2802 107.816C63.616 107.816 63.9481 107.884 64.2576 108.015C64.5671 108.146 64.8474 108.338 65.0826 108.58C65.3174 108.823 65.5027 109.109 65.6266 109.424C65.7505 109.739 65.8111 110.076 65.8048 110.415V111.835C65.8048 112.311 65.6732 112.777 65.4243 113.181C65.1754 113.585 64.8197 113.911 64.397 114.121V115.174C64.3974 115.35 64.4665 115.518 64.5893 115.642C64.7125 115.766 64.8792 115.836 65.053 115.836C65.8041 115.811 66.5525 115.943 67.2503 116.225C67.9485 116.508 68.5801 116.934 69.1056 117.477C69.6314 118.02 70.0389 118.668 70.3026 119.379C70.5666 120.09 70.6809 120.849 70.638 121.607L70.9738 121.604Z" fill="#5B5B5B"/>
<path d="M70.9738 104.789V121.605H70.6388C70.6816 120.847 70.5674 120.088 70.3037 119.377C70.0397 118.665 69.6322 118.018 69.1067 117.474C68.5809 116.932 67.9493 116.505 67.2515 116.223C66.5537 115.94 65.8052 115.808 65.0538 115.834C64.88 115.834 64.7132 115.764 64.5904 115.64C64.4673 115.516 64.3981 115.347 64.3981 115.172V114.122C64.8204 113.912 65.1762 113.586 65.4251 113.182C65.6739 112.778 65.8059 112.312 65.8059 111.836V110.416C65.7934 109.748 65.5219 109.111 65.0497 108.643C64.5779 108.175 63.9426 107.913 63.281 107.913C62.6195 107.913 61.9845 108.175 61.5123 108.643C61.0404 109.111 60.7686 109.748 60.7564 110.416V111.836C60.7557 112.311 60.8873 112.778 61.1355 113.182C61.384 113.586 61.7393 113.912 62.1616 114.122V115.174C62.1616 115.35 62.0925 115.519 61.9694 115.643C61.8466 115.767 61.6798 115.837 61.5056 115.837H61.2135C58.8076 115.837 56.7886 117.382 56.384 120.53L56.3378 120.561C55.9702 120.023 55.7735 119.384 55.7746 118.73V104.789H70.9738Z" fill="#F7CEDC"/>
<path d="M70.9741 104.328V104.789H56.3093V104.453C56.3093 100.493 58.5166 98.5579 61.2102 98.5579H61.5023C61.6765 98.5575 61.8433 98.4875 61.966 98.3633C62.0892 98.2387 62.1583 98.07 62.1583 97.8943V96.8456C61.736 96.635 61.3806 96.3091 61.1321 95.9047C60.884 95.5006 60.7524 95.0342 60.7531 94.5586V93.1388C60.7468 92.7999 60.8075 92.4633 60.9313 92.1482C61.0556 91.8331 61.2405 91.5462 61.4757 91.3041C61.7105 91.0624 61.9912 90.87 62.3003 90.7387C62.6098 90.6075 62.9423 90.54 63.2777 90.54C63.6134 90.54 63.9455 90.6075 64.255 90.7387C64.5646 90.87 64.8449 91.0624 65.08 91.3041C65.3152 91.5462 65.5001 91.8331 65.624 92.1482C65.7483 92.4633 65.8089 92.7999 65.8026 93.1388V94.5612C65.8022 95.0372 65.6706 95.5036 65.4217 95.9076C65.1729 96.3121 64.8171 96.638 64.3948 96.8485V97.8917C64.3952 98.0674 64.4643 98.2357 64.5871 98.3599C64.7102 98.4841 64.8767 98.5542 65.0505 98.5549C65.8019 98.529 66.55 98.6613 67.2478 98.9438C67.9456 99.2263 68.5772 99.6522 69.103 100.195C69.6285 100.738 70.036 101.386 70.3 102.097C70.5637 102.808 70.6779 103.567 70.6354 104.325L70.9741 104.328Z" fill="#5B5B5B"/>
<path d="M70.9741 87.3656V87.7255H56.3093V87.4924C56.3093 83.5316 58.5166 81.5965 61.2102 81.5965H61.5023C61.6761 81.5961 61.8429 81.5264 61.966 81.4022C62.0888 81.278 62.1579 81.1097 62.1583 80.934V79.8827C61.736 79.6721 61.3806 79.3462 61.1325 78.9422C60.884 78.5381 60.7527 78.0721 60.7531 77.5965V76.1759C60.7468 75.837 60.8075 75.5001 60.9313 75.1849C61.0556 74.8702 61.2405 74.5833 61.4757 74.3412C61.7105 74.0991 61.9912 73.9071 62.3003 73.7759C62.6098 73.6446 62.9423 73.5771 63.2777 73.5771C63.6134 73.5771 63.9455 73.6446 64.255 73.7759C64.5646 73.9071 64.8449 74.0991 65.08 74.3412C65.3152 74.5833 65.5001 74.8702 65.624 75.1849C65.7483 75.5001 65.8089 75.837 65.8026 76.1759V77.5965C65.8022 78.0721 65.6706 78.5385 65.4217 78.9425C65.1729 79.3466 64.8171 79.6721 64.3948 79.8827V80.9322C64.3948 81.1079 64.464 81.2762 64.5871 81.4004C64.7099 81.5246 64.8767 81.5946 65.0505 81.5946C65.8019 81.5687 66.5503 81.701 67.2481 81.9835C67.9459 82.266 68.5775 82.6923 69.1034 83.2354C69.6288 83.7785 70.0364 84.4262 70.3004 85.1372C70.5641 85.8482 70.6783 86.6071 70.6354 87.3656H70.9741Z" fill="#5B5B5B"/>
<path d="M67.2078 57.7871L67.0961 58.0103L62.9548 62.4388C62.8901 62.5093 62.8113 62.5656 62.7244 62.6038C62.6372 62.6424 62.5429 62.6624 62.4478 62.6624C62.3018 62.6624 62.1594 62.6164 62.0407 62.5308C61.9616 62.4729 61.8957 62.3992 61.8469 62.3139C61.7985 62.2283 61.7682 62.1337 61.7585 62.0355C61.7489 61.9376 61.76 61.8387 61.7907 61.7452C61.8218 61.6518 61.8721 61.5662 61.9383 61.4939L66.378 56.7502L66.3532 56.6816C66.4967 56.6279 66.6579 56.5619 66.8291 56.4929C66.7862 56.5619 66.1572 57.5235 67.2078 57.7871Z" fill="#5B5B5B"/>
<path d="M51.3438 27.2957L53.6879 28.4738C53.2345 29.9085 51.3471 29.438 51.3471 29.438L51.3438 27.2957Z" fill="#FFCEB6"/>
<path d="M52.665 73.3361V83.4077H48.4549V83.3032L45.585 79.883C46.1574 78.5384 46.4625 77.0933 46.4832 75.6297C46.4832 73.9304 45.3764 71.8095 44.4213 70.2929L48.4549 67.4673L52.665 73.3361Z" fill="#FFCEB6"/>
<path d="M43.5818 24.4089V59.7542L43.5382 59.8442C42.9472 59.5751 42.326 59.3801 41.6885 59.2637L41.7158 59.1225V24.4089H43.5818Z" fill="#CCEFF6"/>
<path d="M37.0798 51.4453C37.5867 52.4659 37.0239 53.9495 35.9545 54.0844C35.5751 54.1378 35.1883 54.0752 34.8444 53.9043C35.2852 53.2448 35.6217 52.5196 35.8424 51.7556C35.9733 51.4379 36.1871 51.0924 36.3956 50.6531C36.6918 50.8481 36.9285 51.1224 37.0798 51.4453Z" fill="#5B5B5B"/>
<path d="M33.5253 58.0323L36.9614 59.1259C36.9614 59.1259 35.0714 61.2368 29.9746 61.5129C26.7785 61.6201 23.6197 60.7908 20.8792 59.1259L25.2076 57.3194L22.4002 54.3796C22.419 54.3796 22.0304 51.2471 22.0492 51.2445C22.5836 51.1751 26.3492 54.5524 26.6565 54.106L27.4907 54.3003C28.3083 54.8671 29.2025 55.3116 30.1458 55.62L30.1769 55.63C30.4505 55.7335 32.5088 56.4968 33.4444 56.7856H33.4614L33.4702 56.9583L33.5253 58.0323Z" fill="#FFCEB6"/>
<path d="M34.763 51.0464C34.6643 51.1176 34.5592 51.1799 34.4494 51.2318C34.4494 51.2318 33.3803 50.996 32.9873 50.9615C32.6737 50.9337 30.895 51.022 30.2109 51.0624C30.0434 51.0687 29.9435 51.075 29.9435 51.075C30.3884 51.4598 30.858 51.8145 31.3487 52.1371C31.612 52.3321 31.916 52.4629 32.2373 52.5197C32.559 52.5764 32.8889 52.5575 33.2021 52.464C33.7868 52.0689 34.3122 51.5918 34.763 51.0464ZM21.2749 46.6175C21.7622 46.0777 22.4401 46.3754 22.8786 46.6772C23.329 47.0064 23.8752 47.1743 24.4307 47.1543C27.3594 46.9596 27.9781 42.54 28.1615 40.9692C28.1615 40.9692 32.1763 41.4085 33.4728 42.0558C33.5967 42.1188 33.7217 42.1882 33.8426 42.2575C35.1154 43.0126 36.0562 44.2289 36.474 45.6592L36.4426 45.7489C36.3616 45.9847 36.2902 46.1415 36.2902 46.1415C36.673 46.9715 36.8153 47.8939 36.7003 48.8021C36.5831 49.4739 36.3749 50.1259 36.0817 50.7402C35.8047 51.3345 35.5126 51.7986 35.3388 52.2264C35.0407 53.2537 34.5874 54.2283 33.9949 55.1158C33.8211 55.3252 33.6118 55.5021 33.3767 55.6378C33.1537 55.7653 32.9089 55.8494 32.6548 55.8854C31.9585 55.9673 31.2526 55.9173 30.5744 55.7378C30.4442 55.7063 30.307 55.6719 30.1798 55.6315L30.1484 55.6214C29.2054 55.3126 28.3109 54.8685 27.4933 54.3021L26.0381 54.1074C26.3214 53.7582 26.493 53.33 26.5303 52.88C26.5673 52.4303 26.4686 51.9792 26.2467 51.5873C25.712 50.7395 25.3263 50.3999 23.9699 51.0068C23.6423 51.1784 23.3719 51.4438 23.193 51.7701L23.0994 52.1968C22.189 51.6666 20.1592 48.8959 21.0289 47.0112C21.0889 46.867 21.1717 46.7343 21.2749 46.6175Z" fill="#FFCEB6"/>
<path d="M28.1552 40.9533C28.1571 40.9585 28.1571 40.9641 28.1552 40.9693C27.9629 42.6564 27.2599 47.6196 23.7491 47.1265C23.5018 47.0898 23.2688 46.9864 23.0746 46.8273C22.6701 46.5007 21.8432 45.9795 21.2712 46.6179C21.1684 46.7347 21.0841 46.867 21.0216 47.0101C20.1511 48.8952 21.787 50.4407 22.6978 50.9708L23.4319 51.4802C23.2695 51.7597 23.1797 52.0763 23.1712 52.4003C23.1623 52.7243 23.2348 53.0454 23.382 53.3338C23.7643 54.4237 24.6411 54.3002 25.3104 54.3166L25.2043 57.3194L20.8755 59.1259C18.9848 59.4465 17.1498 60.043 15.4288 60.8964C13.8151 56.367 19.1256 48.8878 20.603 44.487C20.7579 44.0281 20.5682 40.6671 23.0033 37.8938C24.2373 36.8888 25.6828 36.1826 27.2285 35.8297C27.4068 35.7829 27.578 35.7411 27.7418 35.7047C29.3589 35.3978 31.0307 35.6217 32.5128 36.3431C33.995 37.0649 35.2097 38.2467 35.9793 39.7155C38.0627 44.004 36.4704 45.6562 36.4704 45.6562C36.0529 44.2264 35.1125 43.0101 33.84 42.2549C32.7347 41.3333 31.4275 40.6923 30.0275 40.3854C28.1153 40.074 28.1426 40.8436 28.1552 40.9533Z" fill="#5B5B5B"/>
<path d="M33.8404 42.2574C33.7191 42.1881 33.5945 42.1188 33.4699 42.0558C32.1734 41.4085 28.1593 40.9692 28.1593 40.9692C28.1608 40.964 28.1608 40.9584 28.1593 40.9533C28.1467 40.8432 28.119 40.0735 30.0305 40.3879C31.4298 40.6956 32.7359 41.3366 33.8404 42.2574Z" fill="#5B5B5B"/>
<path d="M33.4018 55.6856L33.4606 56.7855H33.4444C32.5088 56.4964 30.4505 55.7331 30.1769 55.6296C30.307 55.67 30.4442 55.7045 30.5718 55.736C31.25 55.9155 31.9556 55.9655 32.6523 55.8836C32.9059 55.8476 33.1504 55.7635 33.373 55.6359L33.4018 55.6856Z" fill="#5B5B5B"/>
<path d="M25.1459 54.1623C24.7406 54.2113 24.3312 54.1134 23.9907 53.8862C23.6504 53.6589 23.4008 53.3171 23.2862 52.9212C23.2034 52.685 23.1734 52.4333 23.1997 52.1838C23.2256 51.9347 23.3062 51.6945 23.436 51.481C23.5606 51.27 23.7477 51.1043 23.9707 51.0068C24.163 50.8923 24.3775 50.82 24.5997 50.7951C24.822 50.7707 25.0468 50.7936 25.2594 50.863C25.472 50.9323 25.6677 51.0465 25.8333 51.1981C25.9994 51.3493 26.1314 51.5343 26.2212 51.7412C26.3555 52.037 26.4113 52.3629 26.3843 52.6869C26.3573 53.0113 26.2475 53.323 26.0663 53.5918C25.9687 53.7442 25.8396 53.8736 25.6887 53.9714C25.5375 54.0693 25.3674 54.1334 25.1895 54.1598C25.1751 54.159 25.1618 54.1623 25.1459 54.1623Z" fill="#CCEFF6"/>
<path d="M20.8792 74.4763L20.6056 83.4076H11.576V74.103L20.8792 74.4763Z" fill="#FFCEB6"/>
<path d="M16.3334 21.0981C16.5519 21.0978 16.766 21.163 16.9483 21.2857C17.1303 21.4084 17.2723 21.5827 17.3562 21.7869C17.4402 21.9912 17.4624 22.2159 17.4195 22.4327C17.3769 22.6496 17.2715 22.8487 17.117 23.0051C16.962 23.1616 16.7649 23.2679 16.5505 23.311C16.3356 23.354 16.113 23.3317 15.9111 23.2468C15.7088 23.1623 15.5361 23.0188 15.4148 22.8346C15.2935 22.6507 15.2288 22.4346 15.2292 22.2136C15.2296 21.9178 15.346 21.6342 15.5528 21.4251C15.7598 21.216 16.0405 21.0985 16.3334 21.0981Z" fill="#FFCEB6"/>
<path d="M11.9805 21.0981C12.1995 21.0978 12.4136 21.163 12.5955 21.2857C12.7778 21.4084 12.9198 21.5827 13.0034 21.7869C13.0873 21.9912 13.1095 22.2159 13.067 22.4327C13.0245 22.6496 12.9191 22.8487 12.7641 23.0051C12.6096 23.1616 12.4121 23.2679 12.1976 23.311C11.9828 23.354 11.7605 23.3317 11.5582 23.2468C11.3563 23.1623 11.1836 23.0188 11.062 22.8346C10.9407 22.6507 10.8763 22.4346 10.8767 22.2136C10.8767 21.9178 10.9932 21.6342 11.2003 21.4251C11.407 21.216 11.6877 21.0985 11.9805 21.0981Z" fill="#CCEFF6"/>
<path d="M127.476 124.548C126.852 124.915 126.142 125.108 125.42 125.107H56.7475C56.2113 125.107 55.6803 125.001 55.1848 124.794C54.6893 124.587 54.2392 124.283 53.8598 123.9C53.4808 123.517 53.1802 123.062 52.9749 122.561C52.7701 122.061 52.6647 121.524 52.665 120.983V71.5937C52.665 70.4994 53.0951 69.4502 53.8606 68.6766C54.626 67.9029 55.6648 67.468 56.7475 67.4673H125.42C125.957 67.4673 126.488 67.5737 126.984 67.7813C127.48 67.9885 127.931 68.2925 128.31 68.6758C128.689 69.0591 128.99 69.5144 129.196 70.0152C129.401 70.5164 129.507 71.0532 129.506 71.5952V120.985C129.506 121.706 129.318 122.415 128.962 123.04C128.606 123.666 128.093 124.185 127.476 124.548Z" stroke="#5B5B5B" stroke-width="3.23435" stroke-linecap="round" stroke-linejoin="round"/>
<path d="M70.9737 121.966H58.9795C58.129 121.966 57.3129 121.624 56.7116 121.016C56.11 120.409 55.772 119.584 55.772 118.725V73.8454C55.772 72.9861 56.11 72.1616 56.7116 71.554C57.3129 70.9464 58.129 70.605 58.9795 70.605H123.188C124.039 70.605 124.855 70.9464 125.456 71.554C126.058 72.1616 126.396 72.9861 126.396 73.8454V118.727C126.396 119.586 126.058 120.41 125.456 121.018C124.855 121.626 124.039 121.967 123.188 121.967H70.9737V121.966Z" stroke="#5B5B5B" stroke-width="3.23435" stroke-linecap="round" stroke-linejoin="round"/>
<path d="M87.0615 69.3H92.3569" stroke="#5B5B5B" stroke-width="3.23435" stroke-linecap="round" stroke-linejoin="round"/>
<path d="M70.9727 70.6072V87.3654V87.7239V104.328V104.789V121.605V121.965" stroke="#5B5B5B" stroke-width="3.23435" stroke-linecap="round" stroke-linejoin="round"/>
<path d="M111.396 70.6072V87.3654V87.7239V104.328V104.789V121.605V121.965" stroke="#5B5B5B" stroke-width="3.23435" stroke-linecap="round" stroke-linejoin="round"/>
<path d="M55.7739 87.7236H56.3093H70.973" stroke="#5B5B5B" stroke-width="3.23435" stroke-linecap="round" stroke-linejoin="round"/>
<path d="M55.7739 104.789H56.3093H70.973" stroke="#5B5B5B" stroke-width="3.23435" stroke-linecap="round" stroke-linejoin="round"/>
<path d="M70.638 87.3655C70.6801 86.6078 70.5655 85.8493 70.3015 85.1386C70.0374 84.4283 69.6296 83.7811 69.1041 83.2383C68.5786 82.696 67.947 82.27 67.2496 81.9879C66.5522 81.7054 65.8041 81.5734 65.053 81.5994C64.8792 81.599 64.7124 81.5293 64.5897 81.4051C64.4669 81.2809 64.3974 81.1126 64.3974 80.9369V79.883C64.8197 79.6724 65.1754 79.3465 65.4243 78.9425C65.6732 78.5388 65.8052 78.0724 65.8052 77.5964V76.1762C65.7926 75.5078 65.5212 74.8713 65.0493 74.4034C64.5771 73.9352 63.9418 73.6731 63.2802 73.6731C62.619 73.6731 61.9838 73.9352 61.5115 74.4034C61.0397 74.8713 60.7682 75.5078 60.7557 76.1762V77.5964C60.7553 78.072 60.8869 78.5384 61.1351 78.9425C61.3836 79.3462 61.739 79.672 62.1609 79.883V80.9325C62.1605 81.1078 62.0914 81.2765 61.9686 81.4007C61.8454 81.5249 61.679 81.5946 61.5049 81.5949H61.2127C58.5166 81.5949 56.3123 83.5327 56.3123 87.4908" stroke="#5B5B5B" stroke-width="3.23435" stroke-linecap="round" stroke-linejoin="round"/>
<path d="M70.638 104.328C70.6805 103.57 70.5662 102.811 70.3022 102.1C70.0385 101.389 69.6307 100.741 69.1052 100.198C68.5797 99.6551 67.9481 99.2288 67.2503 98.9463C66.5525 98.6638 65.8041 98.5315 65.053 98.5578C64.8788 98.5571 64.7124 98.4866 64.5897 98.3625C64.4669 98.2383 64.3974 98.07 64.397 97.8942V96.8455C64.8193 96.6353 65.175 96.3102 65.4239 95.9065C65.6728 95.5027 65.8052 95.0368 65.8059 94.5611V93.1391C65.7933 92.4707 65.5219 91.8341 65.0497 91.3663C64.5775 90.8981 63.9425 90.636 63.281 90.636C62.6194 90.636 61.9845 90.8981 61.5123 91.3663C61.04 91.8341 60.7686 92.4707 60.7564 93.1391V94.5611C60.7557 95.0368 60.8873 95.5031 61.1354 95.9076C61.3839 96.3117 61.7393 96.6375 62.1616 96.8485V97.8916C62.1616 98.0674 62.0925 98.236 61.9693 98.3602C61.8466 98.4848 61.6798 98.5549 61.5056 98.5549H61.2135C58.5173 98.5549 56.3126 100.493 56.3126 104.451" stroke="#5B5B5B" stroke-width="3.23435" stroke-linecap="round" stroke-linejoin="round"/>
<path d="M70.6377 121.605C70.6805 120.846 70.5663 120.088 70.3026 119.377C70.039 118.665 69.6311 118.017 69.1056 117.474C68.5801 116.931 67.9482 116.505 67.2504 116.222C66.5526 115.94 65.8041 115.808 65.0527 115.834C64.8789 115.834 64.7121 115.764 64.5893 115.64C64.4666 115.516 64.3974 115.347 64.3971 115.171V114.122C64.8194 113.911 65.1755 113.586 65.424 113.182C65.6728 112.778 65.8048 112.311 65.8048 111.835V110.416C65.7923 109.748 65.5209 109.111 65.049 108.643C64.5768 108.175 63.9415 107.913 63.2803 107.913C62.6187 107.913 61.9834 108.175 61.5112 108.643C61.0393 109.111 60.7679 109.748 60.7553 110.416V111.835C60.755 112.311 60.8863 112.777 61.1344 113.181C61.3829 113.586 61.7383 113.911 62.1606 114.122V115.174C62.1606 115.35 62.0914 115.518 61.9683 115.643C61.8455 115.767 61.6787 115.837 61.5045 115.837H61.2124C58.8065 115.837 56.7875 117.382 56.3829 120.53" stroke="#5B5B5B" stroke-width="3.23435" stroke-linecap="round" stroke-linejoin="round"/>
<path d="M126.397 87.7236H125.787H111.434" stroke="#5B5B5B" stroke-width="3.23435" stroke-linecap="round" stroke-linejoin="round"/>
<path d="M126.397 104.789H125.787H111.434" stroke="#5B5B5B" stroke-width="3.23435" stroke-linecap="round" stroke-linejoin="round"/>
<path d="M111.459 87.3656C111.416 86.6079 111.531 85.8497 111.794 85.1395C112.058 84.4292 112.466 83.7819 112.991 83.2395C113.516 82.6968 114.147 82.2708 114.844 81.9884C115.541 81.7062 116.289 81.5735 117.04 81.5991C117.215 81.5987 117.382 81.5291 117.507 81.4049C117.63 81.2807 117.699 81.1124 117.699 80.9367V79.8827C117.277 79.6725 116.921 79.3466 116.672 78.9426C116.423 78.5385 116.291 78.0725 116.291 77.5965V76.1759C116.291 75.4993 116.557 74.8506 117.03 74.3724C117.504 73.8938 118.146 73.625 118.816 73.625C119.485 73.625 120.128 73.8938 120.601 74.3724C121.075 74.8506 121.341 75.4993 121.341 76.1759V77.5965C121.341 78.0725 121.209 78.5385 120.96 78.9426C120.71 79.3466 120.355 79.6725 119.932 79.8827V80.9322C119.933 81.1083 120.003 81.277 120.126 81.4012C120.25 81.5253 120.417 81.595 120.592 81.5947H120.88C123.579 81.5947 125.787 83.5328 125.787 87.4905" stroke="#5B5B5B" stroke-width="3.23435" stroke-linecap="round" stroke-linejoin="round"/>
<path d="M111.459 104.327C111.416 103.57 111.53 102.811 111.794 102.1C112.057 101.389 112.464 100.742 112.99 100.199C113.515 99.6564 114.146 99.2297 114.844 98.9472C115.541 98.6647 116.289 98.532 117.04 98.5575C117.215 98.5575 117.383 98.4871 117.507 98.3622C117.63 98.2384 117.699 98.0701 117.7 97.8943V96.8456C117.277 96.635 116.921 96.3095 116.672 95.9051C116.423 95.501 116.291 95.0346 116.291 94.5583V93.1388C116.291 92.4622 116.557 91.8135 117.03 91.3353C117.504 90.8567 118.146 90.5879 118.816 90.5879C119.486 90.5879 120.128 90.8567 120.601 91.3353C121.075 91.8135 121.341 92.4622 121.341 93.1388V94.5612C121.341 95.0372 121.209 95.5036 120.96 95.908C120.711 96.3121 120.355 96.638 119.932 96.8482V97.8917C119.933 98.0678 120.003 98.2365 120.126 98.3607C120.25 98.4853 120.417 98.555 120.592 98.555H120.881C123.579 98.555 125.787 100.493 125.787 104.451" stroke="#5B5B5B" stroke-width="3.23435" stroke-linecap="round" stroke-linejoin="round"/>
<path d="M111.459 121.604C111.416 120.847 111.53 120.088 111.793 119.377C112.057 118.666 112.464 118.019 112.989 117.475C113.515 116.932 114.146 116.506 114.844 116.224C115.541 115.941 116.289 115.808 117.04 115.834C117.126 115.834 117.212 115.817 117.292 115.784C117.372 115.751 117.445 115.702 117.506 115.641C117.567 115.579 117.616 115.506 117.649 115.425C117.682 115.345 117.699 115.259 117.7 115.171V114.122C117.277 113.911 116.921 113.586 116.672 113.182C116.423 112.778 116.291 112.311 116.291 111.835V110.416C116.291 109.739 116.557 109.091 117.03 108.612C117.504 108.134 118.146 107.865 118.816 107.865C119.486 107.865 120.128 108.134 120.602 108.612C121.075 109.091 121.341 109.739 121.341 110.416V111.835C121.341 112.311 121.209 112.778 120.96 113.182C120.711 113.586 120.355 113.911 119.932 114.122V115.174C119.933 115.35 120.003 115.519 120.126 115.643C120.25 115.767 120.418 115.837 120.592 115.837H120.88C123.286 115.837 125.308 117.382 125.713 120.53" stroke="#5B5B5B" stroke-width="3.23435" stroke-linecap="round" stroke-linejoin="round"/>
<path d="M111.396 67.4654V56.1344V51.3511H178.079V56.1344V96.2864H129.507" stroke="#5B5B5B" stroke-width="3.23435" stroke-linecap="round" stroke-linejoin="round"/>
<path d="M111.396 56.1345H178.079" stroke="#5B5B5B" stroke-width="3.23435" stroke-linecap="round" stroke-linejoin="round"/>
<path d="M115.703 53.9395C115.704 54.1604 115.639 54.3765 115.518 54.5604C115.397 54.7443 115.225 54.8877 115.022 54.9726C114.82 55.0575 114.598 55.0798 114.384 55.0372C114.169 54.9941 113.972 54.8881 113.817 54.732C113.662 54.576 113.556 54.3769 113.514 54.1604C113.471 53.9435 113.492 53.7189 113.576 53.5146C113.659 53.3104 113.801 53.1357 113.983 53.013C114.164 52.89 114.378 52.8243 114.597 52.824C114.742 52.824 114.886 52.8525 115.02 52.9085C115.154 52.9645 115.276 53.0464 115.379 53.1502C115.482 53.2536 115.563 53.3767 115.619 53.512C115.675 53.6473 115.703 53.7927 115.703 53.9395Z" stroke="#5B5B5B" stroke-width="3.23435" stroke-linecap="round" stroke-linejoin="round"/>
<path d="M120.054 53.9395C120.054 54.1604 119.989 54.3762 119.868 54.5604C119.747 54.7443 119.575 54.8878 119.372 54.9726C119.171 55.0572 118.948 55.0798 118.734 55.0372C118.519 54.9942 118.322 54.8881 118.167 54.7324C118.012 54.5764 117.907 54.3773 117.864 54.1608C117.821 53.9443 117.842 53.7196 117.925 53.5154C118.009 53.3111 118.15 53.1365 118.332 53.0134C118.514 52.8903 118.727 52.8243 118.946 52.824C119.091 52.8236 119.235 52.8521 119.369 52.9081C119.504 52.9641 119.626 53.046 119.729 53.1498C119.832 53.2533 119.913 53.3763 119.969 53.512C120.025 53.6473 120.054 53.7927 120.054 53.9395Z" stroke="#5B5B5B" stroke-width="3.23435" stroke-linecap="round" stroke-linejoin="round"/>
<path d="M124.406 53.9395C124.407 54.1604 124.342 54.3765 124.221 54.5604C124.1 54.7443 123.927 54.8878 123.725 54.9726C123.523 55.0575 123.301 55.0798 123.086 55.0372C122.872 54.9942 122.674 54.8881 122.52 54.7321C122.365 54.576 122.259 54.3769 122.216 54.1604C122.173 53.9435 122.195 53.7189 122.279 53.5146C122.362 53.3104 122.504 53.1357 122.685 53.013C122.867 52.89 123.081 52.8243 123.3 52.824C123.445 52.8236 123.589 52.8521 123.723 52.9081C123.857 52.9641 123.979 53.046 124.082 53.1498C124.185 53.2533 124.266 53.3763 124.322 53.512C124.378 53.6473 124.406 53.7927 124.406 53.9395Z" stroke="#5B5B5B" stroke-width="3.23435" stroke-linecap="round" stroke-linejoin="round"/>
<path d="M52.6646 83.4078H48.4546H43.5818H20.6056H11.576H8.78333V24.4086V19.6245H100.342V24.4086V67.4655" stroke="#5B5B5B" stroke-width="3.23435" stroke-linecap="round" stroke-linejoin="round"/>
<path d="M8.78333 24.4089H41.7159H43.5818H100.342" stroke="#5B5B5B" stroke-width="3.23435" stroke-linecap="round" stroke-linejoin="round"/>
<path d="M13.0873 22.2136C13.0877 22.4346 13.023 22.6507 12.902 22.8346C12.7807 23.0185 12.608 23.1619 12.4061 23.2468C12.2042 23.3317 11.982 23.354 11.7671 23.3113C11.5527 23.2683 11.3556 23.1623 11.2006 23.0062C11.0457 22.8502 10.9403 22.6511 10.8974 22.4346C10.8545 22.2177 10.8759 21.9931 10.9595 21.7888C11.0431 21.5845 11.1847 21.4099 11.3663 21.2872C11.5482 21.1641 11.762 21.0985 11.9805 21.0981C12.2738 21.0981 12.5548 21.2153 12.7626 21.4244C12.9701 21.6335 13.0869 21.9174 13.0873 22.2136Z" stroke="#5B5B5B" stroke-width="3.23435" stroke-linecap="round" stroke-linejoin="round"/>
<path d="M17.4409 22.2136C17.4413 22.4346 17.3765 22.6503 17.2552 22.8342C17.1343 23.0185 16.9616 23.1619 16.7597 23.2464C16.5578 23.3313 16.3356 23.354 16.1211 23.3113C15.9066 23.2683 15.7092 23.1623 15.5542 23.0066C15.3996 22.8505 15.2939 22.6514 15.251 22.4349C15.2077 22.2185 15.2292 21.9938 15.3127 21.7895C15.3959 21.5853 15.5376 21.4107 15.7191 21.2876C15.9007 21.1645 16.1144 21.0985 16.3334 21.0981C16.4783 21.0981 16.6222 21.1267 16.7564 21.1827C16.8906 21.2386 17.0127 21.3206 17.1155 21.424C17.2186 21.5278 17.3 21.6509 17.3558 21.7862C17.4117 21.9215 17.4405 22.0668 17.4409 22.2136Z" stroke="#5B5B5B" stroke-width="3.23435" stroke-linecap="round" stroke-linejoin="round"/>
<path d="M21.7933 22.2136C21.7937 22.4346 21.7294 22.6507 21.6081 22.8346C21.4868 23.0185 21.3145 23.1619 21.1122 23.2468C20.9103 23.3317 20.688 23.354 20.4735 23.3113C20.2587 23.2683 20.0616 23.1623 19.9067 23.0062C19.7521 22.8502 19.6463 22.6511 19.6034 22.4346C19.5605 22.2177 19.5823 21.9931 19.6655 21.7888C19.7491 21.5845 19.8908 21.4099 20.0727 21.2872C20.2543 21.1641 20.468 21.0985 20.6869 21.0981C20.9798 21.0981 21.2612 21.2153 21.4686 21.4244C21.6761 21.6335 21.793 21.9174 21.7933 22.2136Z" stroke="#5B5B5B" stroke-width="3.23435" stroke-linecap="round" stroke-linejoin="round"/>
<path d="M82.8674 144.687L55.4943 125.107V126.187C55.4939 126.922 55.6684 127.646 56.0027 128.299C56.3374 128.952 56.8218 129.514 57.4161 129.938L89.9385 153.202C91.2942 154.169 92.9124 154.689 94.572 154.69H161.5C161.931 154.691 162.358 154.605 162.757 154.438C163.155 154.272 163.517 154.028 163.823 153.72C164.128 153.412 164.369 153.046 164.534 152.643C164.699 152.241 164.784 151.809 164.784 151.374V151.235" stroke="#5B5B5B" stroke-width="3.23435" stroke-linecap="round" stroke-linejoin="round"/>
<path d="M127.476 124.548L164.78 151.232H92.0182" stroke="#5B5B5B" stroke-width="3.23435" stroke-linecap="round" stroke-linejoin="round"/>
<path d="M121.897 64.2773H167.576" stroke="#5B5B5B" stroke-width="3.23435" stroke-linecap="round" stroke-linejoin="round"/>
<path d="M129.982 74.6428H167.575" stroke="#5B5B5B" stroke-width="3.23435" stroke-linecap="round" stroke-linejoin="round"/>
<path d="M129.982 85.0088H167.575" stroke="#5B5B5B" stroke-width="3.23435" stroke-linecap="round" stroke-linejoin="round"/>
<path d="M35.385 111.93H50.5095" stroke="#5B5B5B" stroke-width="3.23435" stroke-linecap="round" stroke-linejoin="round"/>
<path d="M131.779 111.93H153.122" stroke="#5B5B5B" stroke-width="3.23435" stroke-linecap="round" stroke-linejoin="round"/>
<path d="M82.8677 144.687L92.0186 151.232V154.188" stroke="#5B5B5B" stroke-width="3.23435" stroke-linecap="round" stroke-linejoin="round"/>
<path d="M109.12 148.72L102.04 143.656H130.439" stroke="#F7CEDC" stroke-width="3.23435" stroke-linecap="round" stroke-linejoin="round"/>
<path d="M130.511 143.656L137.591 148.72H109.192" stroke="#5B5B5B" stroke-width="3.23435" stroke-linecap="round" stroke-linejoin="round"/>
<path d="M144.727 141.193H125.156H85.6475L72.2455 131.606L67.1272 127.943H88.8935H126.207L138.977 137.081L144.727 141.193Z" stroke="#5B5B5B" stroke-width="3.23435" stroke-linecap="round" stroke-linejoin="round"/>
<path d="M72.2451 131.606H94.011H123.306" stroke="#5B5B5B" stroke-width="3.23435" stroke-linecap="round" stroke-linejoin="round"/>
<path d="M87.7926 137.261H119.82H138.853" stroke="#5B5B5B" stroke-width="3.23435" stroke-linecap="round" stroke-linejoin="round"/>
<path d="M88.8939 127.943L94.0118 131.606L99.3471 135.423" stroke="#5B5B5B" stroke-width="3.23435" stroke-linecap="round" stroke-linejoin="round"/>
<path d="M114.702 133.598L119.82 137.26L125.156 141.077" stroke="#5B5B5B" stroke-width="3.23435" stroke-linecap="round" stroke-linejoin="round"/>
<path d="M98.4796 100.862C99.3287 100.862 100.169 101.031 100.953 101.359C101.737 101.688 102.45 102.169 103.05 102.775C103.65 103.382 104.126 104.102 104.45 104.894C104.775 105.686 104.942 106.535 104.941 107.392C104.943 107.413 104.943 107.434 104.941 107.455C104.941 109.186 104.261 110.846 103.05 112.07C101.838 113.294 100.195 113.981 98.4815 113.981C96.7682 113.981 95.1252 113.294 93.9138 112.07C92.702 110.846 92.0216 109.186 92.0216 107.455C92.0197 107.434 92.0197 107.413 92.0216 107.392C92.0212 105.661 92.7013 104.001 93.9123 102.776C95.1234 101.552 96.7664 100.863 98.4796 100.862Z" stroke="#5B5B5B" stroke-width="3.23435" stroke-linecap="round" stroke-linejoin="round"/>
<path d="M98.48 96.7236V100.863V107.457V113.921V117.562" stroke="#5B5B5B" stroke-width="3.23435" stroke-linecap="round" stroke-linejoin="round"/>
<path d="M108.794 107.457H104.938H98.48H92.022H88.1654" stroke="#5B5B5B" stroke-width="3.23435" stroke-linecap="round" stroke-linejoin="round"/>
<path d="M74.9568 47.104C74.9964 45.3998 75.6942 43.7786 76.9015 42.5875C78.1085 41.3964 79.7289 40.7295 81.4167 40.7295C83.104 40.7295 84.7245 41.3964 85.9318 42.5875C87.1388 43.7786 87.837 45.3998 87.8766 47.104C87.878 47.1262 87.878 47.1484 87.8766 47.1707C87.861 48.7084 87.3086 50.1913 86.3164 51.3579C85.3246 52.5242 83.9568 53.2997 82.4543 53.5474C80.9518 53.7947 79.4109 53.4985 78.1037 52.7107C76.7961 51.9229 75.8062 50.694 75.3077 49.2408" stroke="#5B5B5B" stroke-width="3.23435" stroke-linecap="round" stroke-linejoin="round"/>
<path d="M81.4185 36.436V40.5766V47.1701V53.6314V57.2751" stroke="#5B5B5B" stroke-width="3.23435" stroke-linecap="round" stroke-linejoin="round"/>
<path d="M75.2767 47.1702H74.9568H71.1039" stroke="#5B5B5B" stroke-width="3.23435" stroke-linecap="round" stroke-linejoin="round"/>
<path d="M91.732 47.1702H87.8766H81.4182H77.4344" stroke="#5B5B5B" stroke-width="3.23435" stroke-linecap="round" stroke-linejoin="round"/>
<path d="M74.7819 81.6922V85.9109L85.0092 84.6983L97.1861 83.2536V88.6312V90.8266L95.0342 89.7427L85.0092 84.6983L77.1234 80.7279L74.7819 79.5498V81.6922Z" stroke="#5B5B5B" stroke-width="3.23435" stroke-linecap="round" stroke-linejoin="round"/>
<path d="M74.7819 81.6896C74.7819 81.6896 76.6663 82.1611 77.1234 80.7253" stroke="#5B5B5B" stroke-width="3.23435" stroke-linecap="round" stroke-linejoin="round"/>
<path d="M95.0317 89.7428C95.2532 89.3744 95.5716 89.0752 95.9517 88.8791C96.3315 88.683 96.7579 88.597 97.1835 88.6311" stroke="#5B5B5B" stroke-width="3.23435" stroke-linecap="round" stroke-linejoin="round"/>
<path d="M51.3438 29.438V33.6594L61.5737 32.4442L73.7468 30.9987V36.3771V38.5725L71.595 37.4885L61.5737 32.4442L53.6845 28.4738L51.3438 27.2957V29.438Z" stroke="#5B5B5B" stroke-width="3.23435" stroke-linecap="round" stroke-linejoin="round"/>
<path d="M51.3438 29.4376C51.3438 29.4376 53.2308 29.9084 53.6845 28.4734" stroke="#5B5B5B" stroke-width="3.23435" stroke-linecap="round" stroke-linejoin="round"/>
<path d="M71.598 37.4931C71.8195 37.1246 72.1379 36.8258 72.518 36.6293C72.8978 36.4332 73.3241 36.3472 73.7498 36.3817" stroke="#5B5B5B" stroke-width="3.23435" stroke-linecap="round" stroke-linejoin="round"/>
<path d="M88.1524 104.381H80.5717V101.24V96.7231H85.044H88.1524V104.381Z" stroke="#5B5B5B" stroke-width="3.23435" stroke-linecap="round" stroke-linejoin="round"/>
<path d="M85.0444 101.24H80.5721H77.4633V93.5818H85.0444V96.7232V101.24Z" stroke="#5B5B5B" stroke-width="3.23435" stroke-linecap="round" stroke-linejoin="round"/>
<path d="M77.4633 93.5818L80.5721 96.7232" stroke="#5B5B5B" stroke-width="3.23435" stroke-linecap="round" stroke-linejoin="round"/>
<path d="M85.0443 93.5818L88.1531 96.7232" stroke="#5B5B5B" stroke-width="3.23435" stroke-linecap="round" stroke-linejoin="round"/>
<path d="M85.0443 101.24L88.1531 104.381" stroke="#5B5B5B" stroke-width="3.23435" stroke-linecap="round" stroke-linejoin="round"/>
<path d="M77.4633 101.24L80.5721 104.381" stroke="#5B5B5B" stroke-width="3.23435" stroke-linecap="round" stroke-linejoin="round"/>
<path d="M60.1736 55.0015H52.5925V51.8601V47.3433H57.0648H60.1736V55.0015Z" stroke="#5B5B5B" stroke-width="3.23435" stroke-linecap="round" stroke-linejoin="round"/>
<path d="M57.0652 51.8597H52.5929H49.4841V44.2014H57.0652V47.3429V51.8597Z" stroke="#5B5B5B" stroke-width="3.23435" stroke-linecap="round" stroke-linejoin="round"/>
<path d="M49.4841 44.2014L52.5929 47.3429" stroke="#5B5B5B" stroke-width="3.23435" stroke-linecap="round" stroke-linejoin="round"/>
<path d="M57.0652 44.2014L60.174 47.3429" stroke="#5B5B5B" stroke-width="3.23435" stroke-linecap="round" stroke-linejoin="round"/>
<path d="M57.0652 51.8599L60.174 55.0013" stroke="#5B5B5B" stroke-width="3.23435" stroke-linecap="round" stroke-linejoin="round"/>
<path d="M49.4841 51.8599L52.5929 55.0013" stroke="#5B5B5B" stroke-width="3.23435" stroke-linecap="round" stroke-linejoin="round"/>
<path d="M77.1522 114.179C77.1522 114.179 75.8798 114.701 75.8158 115.612C75.7515 116.522 76.9133 116.525 77.4292 116.004C77.4484 115.383 77.3837 114.761 77.2369 114.157C77.184 113.949 77.1079 113.747 77.0095 113.557C76.5277 112.646 75.7193 112.775 75.4297 113.394" stroke="#5B5B5B" stroke-width="3.23435" stroke-linecap="round" stroke-linejoin="round"/>
<path d="M101.754 76.4688C101.754 76.4688 100.482 76.99 100.418 77.9042C100.354 78.8188 101.516 78.8188 102.032 78.2968C102.051 77.6744 101.986 77.0519 101.839 76.4469C101.787 76.2397 101.711 76.0395 101.612 75.8504C101.13 74.9359 100.322 75.0682 100.032 75.6866" stroke="#5B5B5B" stroke-width="3.23435" stroke-linecap="round" stroke-linejoin="round"/>
<path d="M79.0167 113.921H80.5717" stroke="#5B5B5B" stroke-width="3.23435" stroke-linecap="round" stroke-linejoin="round"/>
<path d="M79.0167 115.178H80.5717" stroke="#5B5B5B" stroke-width="3.23435" stroke-linecap="round" stroke-linejoin="round"/>
<path d="M82.0228 113.528C82.1004 112.538 84.4393 112.52 83.9886 114.235C83.6802 115.401 82.0694 116.356 82.0694 116.356H84.7067" stroke="#5B5B5B" stroke-width="3.23435" stroke-linecap="round" stroke-linejoin="round"/>
<path d="M92.7771 75.7673C92.8573 74.7816 95.1963 74.7593 94.7374 76.4713C94.4301 77.6413 92.8218 78.5948 92.8218 78.5948H95.4559" stroke="#5B5B5B" stroke-width="3.23435" stroke-linecap="round" stroke-linejoin="round"/>
<path d="M87.3884 74.4992C87.4409 73.8359 89.0118 73.8233 88.7071 74.9737C88.5011 75.7522 87.4221 76.3957 87.4221 76.3957H89.1882" stroke="#5B5B5B" stroke-width="3.23435" stroke-linecap="round" stroke-linejoin="round"/>
<path d="M86.4244 115.781C87.4939 117.031 89.1269 116.243 88.5729 114.971C88.0186 113.699 86.5243 114.609 86.4244 115.781Z" stroke="#5B5B5B" stroke-width="3.23435" stroke-linecap="round" stroke-linejoin="round"/>
<path d="M87.407 112.329C86.7665 113.017 85.3576 114.528 86.427 115.781" stroke="#5B5B5B" stroke-width="3.23435" stroke-linecap="round" stroke-linejoin="round"/>
<path d="M97.5496 75.51V76.5128V77.5145" stroke="#5B5B5B" stroke-width="3.23435" stroke-linecap="round" stroke-linejoin="round"/>
<path d="M96.4432 76.5125H97.55H98.5765" stroke="#5B5B5B" stroke-width="3.23435" stroke-linecap="round" stroke-linejoin="round"/>
<path d="M91.8995 74.0149C90.9828 74.2974 90.2211 76.0598 90.5069 77.3002C90.5831 77.8292 90.7939 78.3289 91.1185 78.7512C91.4429 79.1734 91.8703 79.5034 92.3585 79.7091" stroke="#5B5B5B" stroke-width="3.23435" stroke-linecap="round" stroke-linejoin="round"/>
<path d="M102.721 74.0149C103.639 74.2974 104.4 76.0598 104.114 77.3002C104.037 77.8285 103.826 78.3274 103.502 78.7493C103.179 79.1712 102.752 79.5011 102.264 79.7072" stroke="#5B5B5B" stroke-width="3.23435" stroke-linecap="round" stroke-linejoin="round"/>
<path d="M41.7158 24.4089V59.1258" stroke="#5B5B5B" stroke-width="3.23435" stroke-linecap="round" stroke-linejoin="round"/>
<path d="M43.5818 24.4089V59.7542" stroke="#5B5B5B" stroke-width="3.23435" stroke-linecap="round" stroke-linejoin="round"/>
<path d="M20.8792 72.8868V74.4764L11.576 74.1031L10.5532 74.0627C10.5532 74.0627 10.6219 66.7362 12.5367 63.4231C13.2526 62.3284 14.2533 61.4539 15.4289 60.8963C17.151 60.0414 18.987 59.4435 20.8792 59.1221C23.6201 60.7873 26.7789 61.6162 29.975 61.5095C35.0718 61.2329 36.9615 59.1221 36.9615 59.1221C38.536 58.9437 40.1273 58.9912 41.6885 59.2633C42.326 59.3801 42.9473 59.5751 43.5382 59.8442C43.9886 60.0481 44.4035 60.3239 44.767 60.6613C46.5394 62.5197 48.094 64.5779 49.4001 66.7959L48.4524 67.4617L44.4213 70.2929" stroke="#5B5B5B" stroke-width="3.23435" stroke-linecap="round" stroke-linejoin="round"/>
<path d="M11.576 74.103V83.4076" stroke="#5B5B5B" stroke-width="3.23435" stroke-linecap="round" stroke-linejoin="round"/>
<path d="M20.8796 74.4768L20.606 83.4077" stroke="#5B5B5B" stroke-width="3.23435" stroke-linecap="round" stroke-linejoin="round"/>
<path d="M43.0497 68.3325C43.0497 68.3325 43.6905 69.137 44.4212 70.2929C45.3764 71.8095 46.4802 73.9303 46.4828 75.6297C46.4625 77.0933 46.1574 78.5383 45.5846 79.8829C45.0809 81.113 44.4064 82.2648 43.5818 83.3032" stroke="#5B5B5B" stroke-width="3.23435" stroke-linecap="round" stroke-linejoin="round"/>
<path d="M35.9885 74.103C35.9885 74.103 36.2248 78.5568 34.58 80.5576" stroke="#5B5B5B" stroke-width="3.23435" stroke-linecap="round" stroke-linejoin="round"/>
<path d="M35.395 46.9067C35.1121 46.7825 34.8111 46.7058 34.5042 46.6798C34.215 46.6187 33.9155 46.6372 33.6363 46.7339" stroke="#5B5B5B" stroke-width="3.23435" stroke-linecap="round" stroke-linejoin="round"/>
<path d="M28.8556 46.5841C29.2032 46.4973 29.5563 46.4343 29.9125 46.3954C30.2024 46.3383 30.5023 46.3613 30.7804 46.4618" stroke="#5B5B5B" stroke-width="3.23435" stroke-linecap="round" stroke-linejoin="round"/>
<path d="M33.2306 45.7056C33.1108 45.961 33.0502 46.2405 33.0528 46.523C33.0553 46.8055 33.1215 47.0835 33.2458 47.3367C33.4296 47.9588 34.0176 48.6213 33.9144 49.2088C33.8108 49.7968 32.7388 50.0315 32.1109 49.8587" stroke="#5B5B5B" stroke-width="3.23435" stroke-linecap="round" stroke-linejoin="round"/>
<path d="M30.1462 55.62C29.2029 55.3116 28.3087 54.8671 27.4911 54.3003" stroke="#5B5B5B" stroke-width="3.23435" stroke-linecap="round" stroke-linejoin="round"/>
<path d="M36.0787 50.7383C35.8025 51.3322 35.5104 51.7967 35.3355 52.2241C35.0374 53.2514 34.5848 54.226 33.9927 55.1135C33.8171 55.3237 33.6059 55.5005 33.3689 55.6358C33.1463 55.7633 32.9019 55.8471 32.6482 55.8831C31.9515 55.9654 31.2459 55.9153 30.5677 55.7355C30.4368 55.704 30.3004 55.6699 30.1728 55.6295" stroke="#5B5B5B" stroke-width="3.23435" stroke-linecap="round" stroke-linejoin="round"/>
<path d="M36.4393 45.7471C36.3583 45.9832 36.287 46.1397 36.287 46.1397C36.6701 46.9697 36.8125 47.892 36.6978 48.8003C36.5784 49.472 36.3683 50.1241 36.074 50.7384" stroke="#5B5B5B" stroke-width="3.23435" stroke-linecap="round" stroke-linejoin="round"/>
<path d="M28.072 45.4583C28.8556 44.9641 29.776 44.738 30.6968 44.814C31.7037 44.9867 31.76 45.3385 31.7662 45.3541" stroke="#5B5B5B" stroke-width="3.23435" stroke-linecap="round" stroke-linejoin="round"/>
<path d="M36.1098 44.9145C35.8147 44.8856 35.5166 44.9037 35.2267 44.9675C34.7944 45.0505 34.3692 45.1684 33.9554 45.3197" stroke="#5B5B5B" stroke-width="3.23435" stroke-linecap="round" stroke-linejoin="round"/>
<path d="M34.7671 51.0439C34.6683 51.1151 34.5633 51.1774 34.4535 51.2293C34.0227 51.4113 33.5616 51.5088 33.0945 51.5155C32.1212 51.4732 31.1553 51.3223 30.2146 51.0654C30.0123 51.015 29.8725 50.9754 29.8263 50.9646" stroke="#5B5B5B" stroke-width="3.23435" stroke-linecap="round" stroke-linejoin="round"/>
<path d="M29.8082 50.9614C29.8082 50.9614 29.8607 51.0055 29.9454 51.0804C30.3902 51.4649 30.8599 51.8196 31.3506 52.1425C31.6139 52.3375 31.9178 52.4684 32.2396 52.5251C32.5609 52.5818 32.8908 52.5626 33.204 52.4691C33.7897 52.0728 34.3163 51.5935 34.7678 51.0463" stroke="#5B5B5B" stroke-width="3.23435" stroke-linecap="round" stroke-linejoin="round"/>
<path d="M33.4019 55.686L33.461 56.7859L33.4703 56.9587L33.5268 58.0323" stroke="#5B5B5B" stroke-width="3.23435" stroke-linecap="round" stroke-linejoin="round"/>
<path d="M36.9614 59.1258L33.5257 58.0322" stroke="#5B5B5B" stroke-width="3.23435" stroke-linecap="round" stroke-linejoin="round"/>
<path d="M25.3138 54.3164L25.2076 57.3192L20.8792 59.1257" stroke="#5B5B5B" stroke-width="3.23435" stroke-linecap="round" stroke-linejoin="round"/>
<path d="M23.3173 47.0415C23.3173 47.0415 22.0581 45.7469 21.2749 46.6174C21.1721 46.7345 21.0878 46.8669 21.0253 47.01C20.1548 48.8947 22.0145 50.9644 23.4312 51.4801" stroke="#5B5B5B" stroke-width="3.23435" stroke-linecap="round" stroke-linejoin="round"/>
<path d="M21.2749 46.6174V46.6245" stroke="#5B5B5B" stroke-width="3.23435" stroke-linecap="round" stroke-linejoin="round"/>
<path d="M26.0663 53.5907C26.2493 53.3227 26.3599 53.0109 26.3869 52.6862C26.4143 52.3618 26.3569 52.0356 26.2212 51.7401C26.131 51.534 25.9986 51.3494 25.8326 51.1985C25.6665 51.0472 25.4709 50.9334 25.2587 50.8641C25.046 50.7948 24.8216 50.7718 24.5997 50.7959C24.3778 50.8204 24.1633 50.8919 23.9707 51.0057C23.7488 51.1051 23.5621 51.2708 23.436 51.4799C23.3062 51.6934 23.2256 51.9336 23.1997 52.1831C23.1734 52.4322 23.2034 52.6839 23.2862 52.9201C23.4023 53.3149 23.6523 53.656 23.9925 53.8828C24.3323 54.1101 24.741 54.2087 25.1459 54.1616C25.1585 54.1616 25.1707 54.1616 25.1832 54.1616C25.3622 54.1353 25.5334 54.0708 25.6858 53.9726C25.8381 53.8739 25.9679 53.7438 26.0663 53.5907Z" stroke="#5B5B5B" stroke-width="3.23435" stroke-linecap="round" stroke-linejoin="round"/>
<path d="M34.8411 53.905C35.1846 54.0774 35.5718 54.14 35.9512 54.0852C37.0203 53.9498 37.5834 52.4647 37.0776 51.446C36.9263 51.122 36.6882 50.8477 36.3894 50.6545" stroke="#5B5B5B" stroke-width="3.23435" stroke-linecap="round" stroke-linejoin="round"/>
<path d="M29.9413 51.0779C29.9413 51.0779 30.0437 51.0716 30.2087 51.0653C30.8931 51.0245 32.6715 50.9363 32.985 50.9644C33.3744 50.9959 34.4472 51.2343 34.4472 51.2343" stroke="#5B5B5B" stroke-width="3.23435" stroke-linecap="round" stroke-linejoin="round"/>
<path d="M30.1462 55.6199L30.1772 55.6299C30.4509 55.7333 32.5091 56.4966 33.4447 56.7854" stroke="#5B5B5B" stroke-width="3.23435" stroke-linecap="round" stroke-linejoin="round"/>
<path d="M28.1552 40.9533C28.1427 40.8432 28.1153 40.0735 30.0264 40.3879C31.4268 40.6952 32.734 41.3362 33.8389 42.2574L33.8482 42.2663" stroke="#5B5B5B" stroke-width="3.23435" stroke-linecap="round" stroke-linejoin="round"/>
<path d="M24.3967 38.2331C24.3967 38.2331 27.7174 38.0414 28.156 40.953C28.1575 40.9586 28.1575 40.9641 28.156 40.9693" stroke="#5B5B5B" stroke-width="3.23435" stroke-linecap="round" stroke-linejoin="round"/>
<path d="M23.3927 47.0226C27.4915 48.5833 27.9541 42.7219 28.1563 40.9691C28.1563 40.9691 32.1656 41.4084 33.4666 42.0557C33.5916 42.1187 33.7162 42.188 33.8375 42.2574C35.1099 43.0125 36.0503 44.2288 36.4678 45.6591C36.4678 45.6591 38.0601 44.0071 35.9767 39.718C35.2068 38.2492 33.9924 37.0673 32.5103 36.3455C31.0282 35.6241 29.3563 35.4002 27.7392 35.7072C27.5739 35.7435 27.4031 35.7854 27.226 35.8321C25.6799 36.185 24.2347 36.8912 23.0007 37.8963C20.5656 40.6696 20.7553 44.0305 20.6004 44.4894C19.1231 48.8902 13.8125 56.3713 15.4259 60.8988" stroke="#5B5B5B" stroke-width="3.23435" stroke-linecap="round" stroke-linejoin="round"/>
<path d="M66.8288 56.4899C67.3879 56.2753 67.9178 55.9891 68.4048 55.6384C68.5457 55.529 68.6648 55.3937 68.7562 55.2399C68.8109 55.155 68.8456 55.0589 68.8571 54.9585C68.8686 54.858 68.8571 54.7561 68.8231 54.6612C68.7891 54.5659 68.7332 54.4803 68.6608 54.4106C68.5883 54.3409 68.5006 54.289 68.4048 54.2597C68.2673 54.2211 68.1242 54.2063 67.9818 54.2156C66.6665 54.4302 65.3959 54.8654 64.2225 55.5034C63.9285 55.6499 63.6811 55.8775 63.5095 56.1596L60.8445 61.2903L57.9727 67.4312" stroke="#5B5B5B" stroke-width="3.23435" stroke-linecap="round" stroke-linejoin="round"/>
<path d="M65.756 56.8989C65.756 56.8989 66.0008 56.8169 66.3491 56.6816C66.4926 56.6279 66.6538 56.5619 66.825 56.4929" stroke="#5B5B5B" stroke-width="3.23435" stroke-linecap="round" stroke-linejoin="round"/>
<path d="M48.4546 67.4656L52.6647 73.3362" stroke="#5B5B5B" stroke-width="3.23435" stroke-linecap="round" stroke-linejoin="round"/>
<path d="M45.5853 79.8826L48.4553 83.3032" stroke="#5B5B5B" stroke-width="3.23435" stroke-linecap="round" stroke-linejoin="round"/>
<path d="M64.8508 67.4314L66.1876 64.6889C66.9305 64.6677 67.6593 64.4787 68.3205 64.1361C68.9817 63.7936 69.5586 63.3057 70.009 62.7085C71.8864 60.5598 72.3313 59.061 71.5418 58.512C70.7523 57.963 69.1163 58.7129 68.6467 59.6112C68.177 60.5094 68.538 61.7346 70.8174 60.0134" stroke="#5B5B5B" stroke-width="3.23435" stroke-linecap="round" stroke-linejoin="round"/>
<path d="M71.5425 58.5103C71.5425 58.5103 72.5779 57.5613 72.2418 56.6201C71.906 55.6784 70.1247 56.1329 69.0083 56.8091C68.522 57.1068 68.0968 57.4961 67.7555 57.9558C67.2574 58.6623 67.2211 59.413 68.6467 59.6073" stroke="#5B5B5B" stroke-width="3.23435" stroke-linecap="round" stroke-linejoin="round"/>
<path d="M72.2414 56.6215C72.2414 56.6215 72.3912 55.6677 71.1224 54.9411C70.2734 54.4543 68.8582 55.2555 68.8582 55.2555" stroke="#5B5B5B" stroke-width="3.23435" stroke-linecap="round" stroke-linejoin="round"/>
<path d="M66.8291 56.49C66.7855 56.5593 66.1609 57.521 67.2115 57.7845C67.3376 57.8172 67.467 57.8368 67.5972 57.8438" stroke="#5B5B5B" stroke-width="3.23435" stroke-linecap="round" stroke-linejoin="round"/>
<path d="M71.4959 53.3111L75.3077 49.2399L77.3346 47.0793L79.2952 44.9874C79.4202 44.8517 79.4864 44.6712 79.4797 44.4858C79.4731 44.3001 79.3936 44.1251 79.259 43.9987C79.1243 43.8727 78.9457 43.8055 78.7619 43.8122C78.5785 43.8189 78.4051 43.8993 78.2801 44.0354L75.3399 47.2236L70.1654 52.8303" stroke="#5B5B5B" stroke-width="3.23435" stroke-linecap="round" stroke-linejoin="round"/>
<path d="M66.3747 56.7502L61.9346 61.4939C61.8688 61.5662 61.8185 61.6519 61.7874 61.7453C61.7567 61.8387 61.7456 61.9377 61.7553 62.0356C61.7649 62.1334 61.7952 62.2283 61.8436 62.3136C61.8925 62.3992 61.9583 62.473 62.037 62.5308C62.1561 62.6165 62.2985 62.6624 62.4446 62.6621C62.5396 62.6621 62.6339 62.6424 62.7208 62.6039C62.808 62.5657 62.8865 62.5093 62.9515 62.4389L67.0965 58.0103" stroke="#5B5B5B" stroke-width="3.23435" stroke-linecap="round" stroke-linejoin="round"/>
<path d="M71.1232 54.9412C71.1232 54.9412 71.8535 54.0211 71.2719 53.3427C71.1846 53.2456 71.084 53.1622 70.9734 53.0939C70.7297 52.9386 70.4502 52.85 70.1625 52.8367C69.7139 52.8634 69.2794 53.0035 68.8985 53.2437C68.5176 53.4843 68.2026 53.8176 67.9822 54.2128" stroke="#5B5B5B" stroke-width="3.23435" stroke-linecap="round" stroke-linejoin="round"/>
</svg>
